<svg width="44" height="44" viewBox="0 0 44 44" fill="none" xmlns="http://www.w3.org/2000/svg">
<rect width="44" height="44" rx="22" transform="matrix(-1 0 0 1 44 0)" fill="#5751E1"/>
<path d="M10.5067 32.1866L14.9867 28.0266C14.24 27.1599 13.6489 26.2066 13.2133 25.1666C12.7778 24.1266 12.56 23.0288 12.56 21.8732C12.56 20.1977 13.0267 18.6377 13.96 17.1932C14.8933 15.7488 16.1378 14.5932 17.6933 13.7266C19.2489 12.8599 20.9444 12.4266 22.78 12.4266C24.6156 12.4266 26.3111 12.8599 27.8667 13.7266C29.4222 14.5932 30.6667 15.7488 31.6 17.1932C32.5333 18.6377 33 20.2121 33 21.9166C33 23.621 32.5333 25.1955 31.6 26.6399C30.6667 28.0844 29.4222 29.2399 27.8667 30.1066C26.3111 30.9732 24.6 31.4066 22.7333 31.4066C21.5511 31.4066 20.4 31.2044 19.28 30.7999C18.16 30.3955 17.1333 29.8466 16.2 29.1532L11.72 33.3132C11.5333 33.4866 11.3311 33.5732 11.1133 33.5732C10.8956 33.5732 10.6933 33.4866 10.5067 33.3132C10.32 33.1399 10.2267 32.9521 10.2267 32.7499C10.2267 32.5477 10.32 32.3599 10.5067 32.1866ZM22.7333 29.7599C24.2889 29.7599 25.72 29.4132 27.0267 28.7199C28.3333 28.0266 29.36 27.0732 30.1067 25.8599C30.8533 24.6466 31.2267 23.3321 31.2267 21.9166C31.2267 20.501 30.8533 19.1866 30.1067 17.9732C29.36 16.7599 28.3333 15.8066 27.0267 15.1132C25.72 14.4199 24.3044 14.0732 22.78 14.0732C21.2556 14.0732 19.84 14.4199 18.5333 15.1132C17.2267 15.8066 16.2 16.7599 15.4533 17.9732C14.7067 19.1866 14.3333 20.501 14.3333 21.9166C14.3333 23.3321 14.7067 24.6466 15.4533 25.8599C16.2 27.0732 17.2267 28.0266 18.5333 28.7199C19.84 29.4132 21.24 29.7599 22.7333 29.7599Z" fill="white"/>
</svg>
