<svg width="44" height="44" viewBox="0 0 44 44" fill="none" xmlns="http://www.w3.org/2000/svg">
<rect width="44" height="44" rx="22" transform="matrix(-1 0 0 1 44 0)" fill="#5751E1"/>
<path d="M10.5067 32.1867L14.9867 28.0267C14.24 27.16 13.6489 26.2067 13.2133 25.1667C12.7778 24.1267 12.56 23.0289 12.56 21.8733C12.56 20.1978 13.0267 18.6378 13.96 17.1933C14.8933 15.7489 16.1378 14.5933 17.6933 13.7267C19.2489 12.86 20.9444 12.4267 22.78 12.4267C24.6156 12.4267 26.3111 12.86 27.8667 13.7267C29.4222 14.5933 30.6667 15.7489 31.6 17.1933C32.5333 18.6378 33 20.2122 33 21.9167C33 23.6211 32.5333 25.1956 31.6 26.64C30.6667 28.0844 29.4222 29.24 27.8667 30.1067C26.3111 30.9733 24.6 31.4067 22.7333 31.4067C21.5511 31.4067 20.4 31.2044 19.28 30.8C18.16 30.3956 17.1333 29.8467 16.2 29.1533L11.72 33.3133C11.5333 33.4867 11.3311 33.5733 11.1133 33.5733C10.8956 33.5733 10.6933 33.4867 10.5067 33.3133C10.32 33.14 10.2267 32.9522 10.2267 32.75C10.2267 32.5478 10.32 32.36 10.5067 32.1867ZM22.7333 29.76C24.2889 29.76 25.72 29.4133 27.0267 28.72C28.3333 28.0267 29.36 27.0733 30.1067 25.86C30.8533 24.6467 31.2267 23.3322 31.2267 21.9167C31.2267 20.5011 30.8533 19.1867 30.1067 17.9733C29.36 16.76 28.3333 15.8067 27.0267 15.1133C25.72 14.42 24.3044 14.0733 22.78 14.0733C21.2556 14.0733 19.84 14.42 18.5333 15.1133C17.2267 15.8067 16.2 16.76 15.4533 17.9733C14.7067 19.1867 14.3333 20.5011 14.3333 21.9167C14.3333 23.3322 14.7067 24.6467 15.4533 25.86C16.2 27.0733 17.2267 28.0267 18.5333 28.72C19.84 29.4133 21.24 29.76 22.7333 29.76Z" fill="white"/>
</svg>
