<svg width="54" height="53" viewBox="0 0 54 53" fill="none" xmlns="http://www.w3.org/2000/svg">
<g filter="url(#filter0_d_1_10194)">
<rect width="50" height="50" rx="10" fill="#5751E1"/>
<rect x="0.5" y="0.5" width="49" height="49" rx="9.5" stroke="#C8C1ED" stroke-opacity="0.5"/>
<path d="M17.7701 30.0372C15.8837 31.1955 10.9378 33.5607 13.9502 36.5203C15.4218 37.966 17.0607 39 19.1212 39H30.8788C32.9394 39 34.5783 37.966 36.0498 36.5203C39.0622 33.5607 34.1163 31.1955 32.2299 30.0372C27.8064 27.3209 22.1936 27.3209 17.7701 30.0372Z" stroke="white" stroke-width="2" stroke-linecap="round" stroke-linejoin="round"/>
<path d="M31 17C31 20.3137 28.3137 23 25 23C21.6863 23 19 20.3137 19 17C19 13.6863 21.6863 11 25 11C28.3137 11 31 13.6863 31 17Z" stroke="white" stroke-width="2"/>
</g>
<defs>
<filter id="filter0_d_1_10194" x="0" y="0" width="54" height="53" filterUnits="userSpaceOnUse" color-interpolation-filters="sRGB">
<feFlood flood-opacity="0" result="BackgroundImageFix"/>
<feColorMatrix in="SourceAlpha" type="matrix" values="0 0 0 0 0 0 0 0 0 0 0 0 0 0 0 0 0 0 127 0" result="hardAlpha"/>
<feOffset dx="4" dy="3"/>
<feComposite in2="hardAlpha" operator="out"/>
<feColorMatrix type="matrix" values="0 0 0 0 0 0 0 0 0 0 0 0 0 0 0 0 0 0 0.25 0"/>
<feBlend mode="normal" in2="BackgroundImageFix" result="effect1_dropShadow_1_10194"/>
<feBlend mode="normal" in="SourceGraphic" in2="effect1_dropShadow_1_10194" result="shape"/>
</filter>
</defs>
</svg>
