<svg width="57" height="57" viewBox="0 0 57 57" fill="none" xmlns="http://www.w3.org/2000/svg">
<circle cx="28.5" cy="28.5" r="28.5" fill="#5751E1"/>
<path d="M16.1 24.9118C15.6416 28.4211 15.3684 31.9521 15.2817 35.4901C20.0797 37.4943 24.6736 39.9556 29 42.8401C33.3269 39.9555 37.9214 37.4942 42.72 35.4901C42.6332 31.9521 42.36 28.4211 41.9017 24.9118M41.9017 24.9118C43.36 24.4218 44.8383 23.9684 46.3317 23.5551C40.8926 19.7422 35.0866 16.4816 29 13.8218C22.9133 16.4822 17.1073 19.7433 11.6683 23.5568C13.1571 23.9678 14.6343 24.4197 16.0983 24.9118C20.546 26.4071 24.8615 28.2702 29 30.4818C33.1379 28.2702 37.4545 26.4071 41.9017 24.9118ZM20.25 33.0001C20.5815 33.0001 20.8995 32.8684 21.1339 32.634C21.3683 32.3996 21.5 32.0816 21.5 31.7501C21.5 31.4186 21.3683 31.1006 21.1339 30.8662C20.8995 30.6318 20.5815 30.5001 20.25 30.5001C19.9185 30.5001 19.6005 30.6318 19.3661 30.8662C19.1317 31.1006 19 31.4186 19 31.7501C19 32.0816 19.1317 32.3996 19.3661 32.634C19.6005 32.8684 19.9185 33.0001 20.25 33.0001ZM20.25 33.0001V26.8751C23.0779 25.1173 25.9988 23.5139 29 22.0718M17.3217 41.3218C18.2516 40.3941 18.9891 39.2918 19.4916 38.0782C19.9942 36.8646 20.2519 35.5636 20.25 34.2501V31.7501" stroke="white" stroke-width="2" stroke-linecap="round" stroke-linejoin="round"/>
</svg>
