<svg width="18" height="12" viewBox="0 0 18 12" fill="none" xmlns="http://www.w3.org/2000/svg">
<path d="M16.1319 5.03188C16.3711 5.33384 16.4907 5.48486 16.4907 5.70833C16.4907 5.93181 16.3711 6.08283 16.1319 6.38479C15.0567 7.74168 12.3109 10.6667 8.62037 10.6667C4.92978 10.6667 2.18406 7.74168 1.10892 6.38479C0.869637 6.08283 0.75 5.93181 0.75 5.70833C0.75 5.48486 0.869637 5.33384 1.10892 5.03188C2.18406 3.67502 4.92978 0.75 8.62037 0.75C12.3109 0.75 15.0567 3.67502 16.1319 5.03188Z" stroke="#5751E1" stroke-width="1.5"/>
<path d="M10.9814 5.70834C10.9814 4.53471 9.92437 3.58334 8.62033 3.58334C7.31629 3.58334 6.25922 4.53471 6.25922 5.70834C6.25922 6.88198 7.31629 7.83334 8.62033 7.83334C9.92437 7.83334 10.9814 6.88198 10.9814 5.70834Z" stroke="#5751E1" stroke-width="1.5"/>
</svg>
