<svg width="103" height="78" viewBox="0 0 103 78" fill="none" xmlns="http://www.w3.org/2000/svg">
<g clip-path="url(#clip0_1_2079)">
<g clip-path="url(#clip1_1_2079)">
<g clip-path="url(#clip2_1_2079)">
<path d="M3.42176 13.8367C2.50383 15.2112 2.59562 16.7691 2.50383 18.2353C1.67769 25.8413 1.03514 33.539 0.208994 41.2366C0.1172 42.5196 0.392577 43.7109 0.851544 44.9022C1.40231 46.3684 2.13666 47.743 2.68742 49.2092C3.05459 50.034 3.42176 50.5838 4.3397 50.9503C7.00171 52.05 9.57192 53.3329 12.1422 54.5243C12.5093 54.7075 12.8765 54.7992 13.2437 54.9824C14.0698 57.8232 14.9877 60.664 15.6303 63.5965C16.64 67.8119 18.2005 71.7523 19.6692 75.8761C19.8528 76.3343 19.9446 76.7925 20.0364 77.2507C20.3118 77.9838 20.9543 78.2587 21.5969 77.7088C22.0558 77.2507 22.423 76.7008 22.882 76.151C25.9112 72.1189 28.9403 67.9951 31.9695 63.7798C33.6218 64.0547 35.3659 64.3296 37.1099 64.6045C44.8206 65.8875 52.5312 67.1704 60.3337 68.545C67.0346 69.6446 73.6437 70.7443 80.3446 71.844C85.7604 72.7604 91.268 73.6767 96.6838 74.5931C98.1525 74.8681 98.4279 74.5931 98.5197 73.1269C99.4376 65.7042 100.264 58.1898 101.09 50.7671C101.457 47.4681 101.824 44.2607 102.191 40.9617C102.191 40.3202 102.191 39.6788 101.916 39.0373C101.09 37.1129 100.172 35.1885 99.3458 33.2641C98.7033 31.9811 97.7853 31.248 96.2249 30.9731C84.6589 28.8654 73.0929 26.7577 61.6188 24.65C51.1543 22.7256 40.6899 20.8012 30.1336 18.8768C21.964 17.4106 13.8862 15.8527 5.7166 14.3865C4.98225 14.2949 4.24791 14.0199 3.42176 13.8367ZM93.6546 64.9711C93.2875 64.9711 93.1957 64.9711 93.0121 64.8794C83.5574 62.8634 74.1027 60.7557 64.6479 58.7396C52.9902 56.2654 41.3324 53.7911 29.6747 51.3169C28.4814 51.042 27.2881 50.8587 26.0947 50.6754C24.9932 50.4921 24.5343 50.9503 24.8096 51.9584C24.9932 52.5082 24.8096 52.9664 24.626 53.4246C22.7902 57.8232 21.0461 62.2219 19.2102 66.5289C19.1184 66.8038 18.9349 67.0788 18.6595 67.5369C18.2923 66.0707 17.9251 64.7878 17.558 63.5965C16.0893 58.4647 14.6206 53.3329 13.2437 48.2012C12.9683 47.3764 12.6929 46.8266 11.775 46.46C9.66371 45.7269 7.55246 44.8105 5.44122 44.0774C4.3397 43.6192 3.23818 43.161 2.04486 42.7029C2.871 33.8139 3.60535 24.9249 4.43149 15.9443C35.4577 21.5343 66.3002 27.0326 97.3264 32.6226C96.0413 43.436 94.848 54.1577 93.6546 64.9711ZM97.2346 70.4694C97.1428 70.4694 97.051 70.4694 96.9592 70.561C96.4084 69.3697 95.8577 68.1784 95.3987 66.9871C95.3069 66.8038 95.3987 66.5289 95.3987 66.3456C95.6741 64.3296 95.9495 62.3135 96.1331 60.3891C96.8674 53.8828 97.51 47.3764 98.2443 40.7784C98.4279 39.4039 98.6115 38.0293 98.7033 36.5631C100.447 38.854 100.815 40.2286 100.539 42.7945C99.9884 47.2848 99.5294 51.7751 98.9787 56.1737C98.3361 60.939 97.7854 65.7042 97.2346 70.4694ZM32.7957 54.5243C32.8875 54.4326 32.9792 54.341 32.9792 54.2493C34.6315 54.6159 36.2838 54.9824 37.9361 55.2574C38.6704 55.349 39.0376 55.8072 39.4048 56.357C40.5063 58.2814 41.6078 60.1142 42.7093 61.947C42.8929 62.3135 43.1683 62.7717 43.4437 63.3216C41.4242 62.955 39.6802 62.6801 37.8443 62.4052C37.2017 62.3135 36.9264 61.947 36.5592 61.3972C35.6413 59.656 34.6315 57.8232 33.6218 56.0821C33.3464 55.6239 33.071 55.0741 32.7957 54.5243ZM56.1112 65.246C56.0194 65.3376 55.9276 65.4293 55.9276 65.5209C54.1835 65.246 52.4394 64.8794 50.6954 64.6045C50.0528 64.5129 49.8692 64.0547 49.6856 63.5965C48.8595 61.7637 48.0334 60.0226 47.299 58.1898C47.2072 57.9149 47.1154 57.64 46.9318 57.1818C48.6759 57.5483 50.3282 57.8232 51.8887 58.1898C52.1641 58.2814 52.5312 58.4647 52.7148 58.648C53.8163 60.8473 55.0096 63.0467 56.1112 65.246ZM2.68742 44.9938C3.23818 45.1771 3.51356 45.1771 3.78894 45.2687C5.62481 45.9102 7.46067 46.6433 9.29654 47.3764C11.316 48.1095 11.316 48.1095 11.8668 50.2172C12.1422 51.042 12.5093 51.9584 12.4175 52.9664C9.7555 51.6834 7.27709 50.4005 4.70687 49.2092C4.52329 49.1176 4.2479 48.9343 4.15611 48.751C3.69714 47.6513 3.23818 46.46 2.68742 44.9938ZM60.5172 60.0226C62.0777 60.2975 63.4546 60.664 64.8315 60.8473C65.5659 60.939 66.0248 61.3972 66.392 62.0386C66.9428 63.2299 67.5853 64.4212 68.2279 65.5209C68.5951 66.1624 68.9622 66.8955 69.513 67.8119C67.9525 67.5369 66.6674 67.262 65.3823 67.0788C64.5562 66.9871 64.0972 66.5289 63.73 65.7958C62.9957 64.3296 62.1695 62.955 61.3434 61.4888C61.068 61.1222 60.7926 60.7557 60.5172 60.0226ZM54.2753 58.7396C55.8358 59.0146 57.0291 59.2895 58.3142 59.5644C58.5896 59.656 58.865 60.0226 59.0486 60.2975C60.0583 62.0386 60.9762 63.6881 61.8941 65.4293C62.0777 65.7042 62.1695 66.0707 62.3531 66.6206C60.8844 66.3456 59.6911 66.1624 58.406 65.8875C58.1306 65.7958 57.7634 65.5209 57.5799 65.246C56.5701 63.2299 55.5604 61.1222 54.2753 58.7396ZM40.7817 55.8988C42.2504 56.1737 43.5355 56.4487 44.7288 56.7236C44.9124 56.7236 45.096 56.9985 45.1878 57.1818C46.2893 59.4727 47.3908 61.7637 48.4923 64.1463C47.3908 63.963 46.5647 63.963 45.6467 63.6881C45.2796 63.5965 44.9124 63.2299 44.7288 62.955C44.0862 62.0386 43.6273 61.0306 43.0765 60.0226C42.434 58.8313 41.6996 57.5483 40.7817 55.8988ZM27.747 53.1497C28.4814 53.333 29.0321 53.4246 29.4911 53.5162C30.409 53.6079 30.868 54.0661 31.327 54.7992C32.0613 56.1737 32.8875 57.5483 33.7136 58.9229C34.2644 59.8393 34.7233 60.7557 35.3659 62.0386C33.989 61.7637 32.8875 61.5804 31.8777 61.3055C31.6941 61.2139 31.4188 60.939 31.327 60.7557C30.1337 58.2814 29.0321 55.8988 27.747 53.1497ZM75.296 68.9115C73.8273 68.6366 72.7258 68.4533 71.6243 68.2701C71.3489 68.1784 70.8899 67.9035 70.7981 67.6286C69.6966 65.7042 68.6869 63.6881 67.4017 61.4888C68.9622 61.7637 70.1555 62.0386 71.3489 62.3135C71.5324 62.3135 71.716 62.5885 71.8078 62.7717C73.0011 64.6962 74.1027 66.6206 75.296 68.9115ZM86.0358 70.8359C84.6589 70.561 83.5574 70.3777 82.4559 70.1945C81.7215 70.1028 81.3543 69.8279 81.1708 69.1864C80.62 67.7202 79.9774 66.3457 79.3349 64.9711C79.2431 64.6962 79.1513 64.4212 79.0595 63.963C80.3446 64.238 81.5379 64.4212 82.6395 64.6962C82.9148 64.7878 83.282 65.0627 83.4656 65.3376C84.2917 66.9871 85.1179 68.7282 86.0358 70.8359ZM26.2783 54.2493C27.6552 57.0901 29.0321 59.7477 30.2254 62.4052C30.3172 62.5885 30.2254 62.955 30.1336 63.1383C29.8583 63.5965 29.4911 63.963 29.0321 64.4212C27.747 62.4052 26.4619 60.5724 25.2686 58.648C25.085 58.2814 24.9932 57.7316 25.085 57.3651C25.3604 56.4487 25.8194 55.5323 26.2783 54.2493ZM73.6437 62.8634C74.1027 62.955 74.378 62.955 74.6534 62.955C76.5811 63.0467 77.6826 63.8714 78.2334 65.7042C78.6005 66.9871 79.2431 68.1784 79.8857 69.6446C79.0595 69.553 78.5088 69.4614 77.958 69.3697C77.1319 69.3697 76.6729 68.9115 76.3057 68.0868C75.8467 67.0788 75.296 66.1624 74.837 65.246C74.5616 64.6045 74.1945 63.7798 73.6437 62.8634ZM95.7659 72.3938C94.6644 72.2105 93.8382 72.0272 93.1039 71.9356C92.4613 71.844 92.186 71.4774 91.9106 70.9276C91.4516 69.6446 90.9008 68.4533 90.3501 67.1704C90.2583 66.8955 90.1665 66.6206 90.0747 66.1624C91.0844 66.3456 92.0024 66.5289 92.8285 66.7122C93.1039 66.8038 93.3793 66.8955 93.4711 67.1704C94.2054 68.8199 94.9398 70.4694 95.7659 72.3938ZM24.4425 59.9309C25.7276 61.8554 27.0127 63.7798 28.2978 65.7042C27.747 66.4373 27.2881 67.0788 26.7373 67.7202C26.003 66.7122 25.544 65.7042 24.7178 64.9711C23.0656 63.5048 23.1574 61.8553 24.1671 60.1142C24.1671 60.1142 24.1671 60.1142 24.4425 59.9309ZM84.9343 65.1543C86.1276 65.3376 86.9537 65.5209 87.7799 65.7042C88.0553 65.7958 88.3306 65.9791 88.4224 66.254C89.1568 67.9951 89.8911 69.6446 90.7173 71.5691C89.7993 71.3858 88.9732 71.3858 88.2388 71.2025C87.9635 71.1109 87.5963 70.9276 87.5045 70.6527C86.6784 68.9115 85.8522 67.1704 84.9343 65.1543ZM23.8917 71.2941C23.1574 70.1028 22.423 68.9115 21.6887 67.7202C21.5969 67.5369 21.5051 67.262 21.5969 67.0788C21.8722 66.254 22.1476 65.4293 22.6066 64.4212C23.7999 66.0707 24.8096 67.5369 25.8194 69.0032C25.2686 69.7363 24.8096 70.3777 24.3507 71.0192C24.1671 71.0192 24.0753 71.1109 23.8917 71.2941ZM20.7707 69.1864C21.1379 69.8279 21.4133 70.2861 21.6887 70.7443C23.0656 72.9436 23.0656 72.9436 21.2297 74.868C21.2297 74.868 21.1379 74.8681 20.9543 74.9597C20.6789 74.1349 20.4953 73.3102 20.1282 72.6687C19.6692 71.2941 20.0364 70.3777 20.7707 69.1864Z" fill="#161439"/>
<path d="M54.916 12.8284C54.916 13.5616 55.1913 14.1114 55.8339 14.203C56.4764 14.2947 56.9354 14.0197 57.119 13.195C57.3944 12.2786 57.578 11.3622 57.6698 10.4458C57.9451 7.5134 58.2205 4.48932 58.4959 1.55688C58.4959 1.28197 58.5877 0.915411 58.4041 0.732133C58.1287 0.365578 57.7616 -0.000976562 57.4862 -0.000976562C57.2108 -0.000976562 56.7518 0.365578 56.5682 0.640494C56.2929 0.823772 56.2929 1.28197 56.2929 1.55688C55.8339 5.22243 55.3749 8.88798 54.916 12.5535C54.916 12.6452 54.916 12.7368 54.916 12.8284Z" fill="#161439"/>
<path d="M38.7608 5.22245C39.3116 7.05522 39.9541 9.16291 40.5967 11.2706C40.6885 11.5455 40.8721 11.7288 41.0557 11.9121C41.4228 12.2786 41.9736 12.3703 42.3408 12.0037C42.6161 11.7288 42.7079 11.2706 42.6161 10.904C42.0654 8.97963 41.5146 7.05522 40.9639 5.13081C40.9639 4.85589 40.8721 4.58097 40.6885 4.30606C40.4131 3.75623 40.0459 3.57295 39.4034 3.66459C38.8526 3.9395 38.669 4.3977 38.7608 5.22245Z" fill="#161439"/>
<path d="M46.1045 6.23066C46.3799 8.15507 46.5635 10.0795 46.8388 11.9122C46.8388 12.0955 46.9306 12.4621 47.0224 12.5537C47.2978 12.737 47.7568 13.0119 48.1239 13.0119C48.5829 13.0119 48.8583 12.6454 48.8583 12.0955C48.8583 11.3624 48.7665 10.6293 48.6747 9.8962C48.4911 8.52162 48.3993 7.14704 48.2157 5.68082C48.2157 5.31427 48.2157 4.94771 48.0321 4.76444C47.7568 4.48952 47.3896 4.2146 47.0224 4.2146C46.747 4.2146 46.3799 4.58116 46.2881 4.94771C46.0127 5.31427 46.1045 5.77246 46.1045 6.23066Z" fill="#161439"/>
<path d="M65.9316 6.87183C65.5644 7.23838 65.1972 7.42166 65.0136 7.69658C64.2793 9.07116 63.5449 10.3541 62.8106 11.7287C62.7188 12.0036 62.5352 12.2785 62.5352 12.5534C62.627 12.92 62.9024 13.3782 63.1778 13.4698C63.4531 13.5615 64.0039 13.4698 64.1875 13.1949C65.1054 11.7287 65.9316 10.1708 66.7577 8.61296C66.8495 8.42969 66.9413 7.97149 66.7577 7.78821C66.5741 7.5133 66.2987 7.33002 65.9316 6.87183Z" fill="#161439"/>
<path d="M71.8983 10.5376C71.7147 10.6292 71.4394 10.8125 71.2558 10.9958C70.3378 12.0954 69.4199 13.1035 68.502 14.2031C68.2266 14.5697 68.1348 15.0279 68.502 15.3028C68.7773 15.5777 69.2363 15.5777 69.6035 15.6693C69.7871 15.6693 70.0625 15.4861 70.1542 15.3028C71.0722 14.2948 71.9901 13.2867 72.7245 12.1871C73.2752 11.454 72.8163 10.5376 71.8983 10.5376Z" fill="#161439"/>
<path d="M93.4704 36.5629C93.4704 36.4713 93.4704 36.1964 93.3786 36.0131C93.2868 35.8298 93.1032 35.5549 92.9196 35.5549C92.6442 35.5549 92.2771 35.6465 92.1853 35.8298C92.0017 36.1047 91.9099 36.5629 91.8181 36.8378C91.1755 42.0612 90.4412 47.3763 89.7986 52.5997C89.7068 53.2412 89.615 53.8826 89.5233 54.5241C89.4315 55.3489 89.7068 55.7154 90.2576 55.807C90.9001 55.807 91.1755 55.4405 91.2673 54.799C91.4509 53.6077 91.5427 52.5081 91.7263 51.3168C92.277 46.6432 92.8278 41.878 93.2868 37.2044C93.3786 37.0211 93.3786 36.8378 93.4704 36.5629Z" fill="#161439"/>
<path d="M8.19499 24.2833C8.19499 23.5502 8.28678 22.8171 8.28678 21.9924C8.28678 21.6258 8.28678 21.3509 8.28678 20.9843C8.19499 20.5261 8.1032 19.9763 7.46065 19.9763C6.90989 19.9763 6.90988 20.5261 6.81809 20.8927C6.7263 22.7255 6.6345 24.5582 6.45091 26.391C6.17553 29.9649 5.80836 33.5388 5.44119 37.2044C5.44119 37.5709 5.3494 37.9375 5.44119 38.3041C5.53298 38.579 5.80837 38.8539 6.08375 38.9455C6.35913 38.9455 6.7263 38.7622 6.81809 38.4873C7.00168 38.2124 7.00168 37.8459 7.00168 37.5709C7.36885 33.3556 7.73603 29.0485 8.01141 24.8332C8.19499 24.6499 8.19499 24.4666 8.19499 24.2833Z" fill="#161439"/>
<path d="M50.8788 27.1241C51.246 26.4827 51.6132 26.1161 51.6132 25.7495C51.6132 25.2914 51.246 25.0164 50.787 25.0164C50.3281 25.0164 49.9609 25.383 49.9609 25.8412C50.0527 26.2077 50.4199 26.4827 50.8788 27.1241Z" fill="#161439"/>
<path d="M64.3711 28.4069C64.4629 29.14 64.83 29.415 65.3808 29.415C65.8398 29.3233 66.1151 29.0484 66.1151 28.5902C66.1151 28.132 65.5644 27.6738 65.1972 27.8571C64.7382 27.8571 64.5547 28.2236 64.3711 28.4069Z" fill="#161439"/>
<path d="M77.4062 31.1561C77.9571 31.5226 78.3243 31.7976 78.5996 31.7976C79.0586 31.8892 79.4258 31.5226 79.4258 31.0645C79.4258 30.6063 79.0586 30.2397 78.5996 30.3313C78.2325 30.423 77.9571 30.7895 77.4062 31.1561Z" fill="#161439"/>
<path d="M83.1895 31.6144C83.6485 31.9809 83.8321 32.3475 84.1074 32.4391C84.4746 32.5307 84.8417 32.3475 84.9335 31.8893C85.0253 31.4311 84.75 30.9729 84.291 31.0645C83.9239 31.0645 83.6485 31.3394 83.1895 31.6144Z" fill="#161439"/>
<path d="M87.7793 32.8056C88.4218 33.1721 88.6972 33.4471 88.9726 33.4471C89.4316 33.5387 89.7987 33.0805 89.7069 32.7139C89.6151 32.439 89.248 32.0725 88.9726 32.0725C88.6972 32.0725 88.4218 32.439 87.7793 32.8056Z" fill="#161439"/>
<path d="M23.707 21.6256C24.166 21.9921 24.3496 22.267 24.7167 22.3587C25.0839 22.4503 25.6347 21.9921 25.4511 21.6256C25.3593 21.3507 24.9921 20.9841 24.7167 20.9841C24.4414 20.9841 24.166 21.3507 23.707 21.6256Z" fill="#161439"/>
<path d="M14.5274 19.335C14.252 19.8848 13.9766 20.1597 13.9766 20.4346C14.0684 20.7096 14.4356 20.8928 14.711 21.0761C14.8945 20.8012 15.3535 20.5263 15.3535 20.2514C15.3535 19.9765 14.8945 19.7015 14.5274 19.335Z" fill="#161439"/>
<path d="M43.7188 24.6498C44.1777 24.9248 44.453 25.1997 44.7284 25.1997C44.912 25.1997 45.2791 24.8331 45.2791 24.5582C45.3709 24.1916 44.8202 23.7334 44.453 23.8251C44.2694 23.9167 44.0859 24.2833 43.7188 24.6498Z" fill="#161439"/>
<path d="M71.3477 30.6981C71.7148 30.2399 71.9902 29.9649 71.9902 29.69C71.9902 29.5067 71.6231 29.0486 71.4395 29.0486C71.1641 29.1402 70.7051 29.4151 70.7051 29.5984C70.7969 29.7817 71.0723 30.1482 71.3477 30.6981Z" fill="#161439"/>
<path d="M55.1914 27.3989C55.7422 27.7655 56.0176 28.132 56.293 28.132C56.5683 28.132 56.8437 27.6738 56.9355 27.3989C56.9355 27.2156 56.5683 26.8491 56.3847 26.8491C56.0176 26.7574 55.7422 27.0324 55.1914 27.3989Z" fill="#161439"/>
<path d="M28.8477 22.7255C29.3067 23.0005 29.5821 23.367 29.8575 23.367C30.0411 23.367 30.4082 23.0005 30.4082 22.7255C30.5 22.359 30.1329 21.9924 29.6739 22.0841C29.4903 22.0841 29.3067 22.359 28.8477 22.7255Z" fill="#161439"/>
<path d="M36.7422 23.825C37.2011 24.1916 37.3847 24.4665 37.6601 24.4665C38.1191 24.5581 38.3945 24.2832 38.3945 23.825C38.3945 23.5501 38.0273 23.1836 37.8437 23.1836C37.5683 23.2752 37.2929 23.5501 36.7422 23.825Z" fill="#161439"/>
<path d="M18.291 20.6178C18.6582 20.8927 18.8418 21.1676 19.1171 21.2592C19.5761 21.3509 19.8515 21.076 19.8515 20.6178C19.8515 20.1596 19.5761 19.8847 19.1171 19.9763C18.8418 20.0679 18.6582 20.3428 18.291 20.6178Z" fill="#161439"/>
<path d="M14.6465 37.8639L16.1374 29.2649L17.9554 29.5801L16.7244 36.6802L20.4109 37.3193L20.151 38.8183L14.6465 37.8639ZM24.6639 30.7432L23.1731 39.3422L21.355 39.027L22.8459 30.428L24.6639 30.7432ZM27.7133 31.2719L28.6589 38.1655L28.7387 38.1793L31.954 32.0071L33.9694 32.3566L29.5142 40.4416L27.1713 40.0354L25.6937 30.9218L27.7133 31.2719ZM33.5135 41.135L35.0043 32.536L40.7986 33.5406L40.5387 35.0395L36.5625 34.3501L36.2073 36.3991L39.8854 37.0368L39.6255 38.5358L35.9474 37.8981L35.5914 39.9512L39.5844 40.6435L39.3245 42.1425L33.5135 41.135ZM52.0457 38.5915L50.2066 38.2727C50.2143 38.0289 50.1824 37.8057 50.1108 37.603C50.0398 37.3975 49.9345 37.2149 49.7949 37.0552C49.6554 36.8955 49.4853 36.7622 49.2847 36.6553C49.0869 36.549 48.8648 36.4744 48.6185 36.4317C48.1734 36.3546 47.7666 36.3979 47.398 36.5618C47.0298 36.7228 46.7184 36.9975 46.4636 37.3859C46.2094 37.7714 46.0306 38.2623 45.9272 38.8585C45.8209 39.4715 45.8226 40.0023 45.9322 40.4509C46.0446 40.9 46.2476 41.2596 46.541 41.5296C46.8344 41.7996 47.198 41.9722 47.6319 42.0474C47.8754 42.0896 48.1064 42.0965 48.3247 42.0681C48.5457 42.0401 48.7481 41.9786 48.9319 41.8836C49.116 41.7857 49.2769 41.6565 49.4143 41.4958C49.5545 41.3356 49.6655 41.1443 49.7473 40.9221L51.5849 41.2493C51.4689 41.6358 51.2839 41.9958 51.03 42.3295C50.7793 42.6609 50.4695 42.9431 50.1004 43.176C49.7346 43.4067 49.3174 43.5679 48.8488 43.6597C48.3835 43.7491 47.8751 43.746 47.3237 43.6504C46.5567 43.5175 45.901 43.225 45.3566 42.7731C44.815 42.3217 44.4262 41.7367 44.1904 41.0183C43.9573 40.3003 43.9218 39.4738 44.0839 38.5389C44.2465 37.6012 44.5612 36.834 45.0279 36.2374C45.4947 35.6407 46.0602 35.2226 46.7245 34.9832C47.3893 34.7409 48.0996 34.6853 48.8553 34.8163C49.3536 34.9027 49.8033 35.0528 50.2045 35.2665C50.6085 35.4807 50.9524 35.7508 51.2361 36.0768C51.5203 36.4 51.7325 36.7726 51.8726 37.1948C52.0156 37.6175 52.0733 38.0831 52.0457 38.5915ZM52.3805 44.4061L53.8713 35.8071L55.6894 36.1223L54.4584 43.2223L58.1449 43.8615L57.885 45.3604L52.3805 44.4061ZM60.7905 45.8642L58.8423 45.5264L63.3017 37.4421L65.6446 37.8483L67.118 46.9612L65.1698 46.6234L64.166 39.616L64.0988 39.6043L60.7905 45.8642ZM61.2548 42.4631L65.8566 43.2609L65.6105 44.6801L61.0087 43.8822L61.2548 42.4631ZM73.6836 41.7894C73.7087 41.4449 73.6102 41.1568 73.388 40.9251C73.1657 40.6934 72.8363 40.5397 72.3996 40.464C72.1029 40.4125 71.8451 40.4111 71.6262 40.4596C71.4078 40.5054 71.2314 40.5915 71.097 40.7182C70.9654 40.8453 70.8836 41.0012 70.8516 41.186C70.8193 41.3389 70.8282 41.4789 70.8782 41.6058C70.9311 41.7332 71.0133 41.8498 71.1247 41.9556C71.2366 42.0586 71.3697 42.1552 71.5242 42.2454C71.6792 42.3328 71.8468 42.4138 72.027 42.4883L72.7676 42.807C73.1281 42.956 73.453 43.1277 73.7422 43.322C74.0315 43.5163 74.2731 43.7355 74.4672 43.9796C74.6613 44.2238 74.7974 44.4953 74.8753 44.7943C74.956 45.0937 74.9667 45.4228 74.9074 45.7816C74.8133 46.3073 74.5999 46.7403 74.267 47.0805C73.9374 47.4184 73.505 47.6505 72.9699 47.7768C72.438 47.9008 71.8222 47.9022 71.1224 47.7809C70.4282 47.6605 69.8421 47.4493 69.3639 47.1473C68.8885 46.8458 68.5428 46.4614 68.3268 45.9944C68.1141 45.525 68.0544 44.9798 68.1477 44.3588L69.9069 44.6638C69.8765 44.9555 69.9174 45.2105 70.0294 45.4289C70.1448 45.645 70.3171 45.8233 70.5465 45.964C70.7791 46.1024 71.0522 46.1987 71.3657 46.2531C71.6736 46.3065 71.9487 46.308 72.1909 46.2578C72.436 46.208 72.6353 46.1143 72.7889 45.9765C72.9426 45.8388 73.0373 45.6664 73.0733 45.4593C73.1067 45.2661 73.0775 45.0938 72.9855 44.9424C72.8964 44.7914 72.7507 44.6508 72.5483 44.5206C72.3488 44.3908 72.0989 44.261 71.7985 44.1311L70.9029 43.7336C70.2085 43.4316 69.6839 43.0566 69.329 42.6087C68.9742 42.1608 68.8532 41.6194 68.9662 40.9845C69.0537 40.4634 69.2711 40.0325 69.6185 39.692C69.9686 39.3519 70.409 39.1154 70.9395 38.9825C71.47 38.8496 72.0487 38.8375 72.6758 38.9462C73.314 39.0568 73.8521 39.2626 74.2901 39.5634C74.7309 39.8647 75.0505 40.233 75.249 40.6682C75.4474 41.1034 75.5064 41.5778 75.426 42.0915L73.6836 41.7894ZM81.4313 43.1327C81.4564 42.7882 81.3579 42.5 81.1357 42.2683C80.9134 42.0366 80.584 41.8829 80.1473 41.8072C79.8506 41.7558 79.5928 41.7543 79.3739 41.8029C79.1555 41.8486 78.9791 41.9348 78.8447 42.0614C78.7131 42.1886 78.6313 42.3445 78.5993 42.5292C78.567 42.6822 78.5759 42.8222 78.6259 42.949C78.6788 43.0764 78.761 43.193 78.8724 43.2988C78.9843 43.4019 79.1174 43.4985 79.2719 43.5887C79.4269 43.6761 79.5945 43.7571 79.7747 43.8316L80.5153 44.1502C80.8758 44.2993 81.2007 44.4709 81.4899 44.6652C81.7792 44.8595 82.0208 45.0788 82.2149 45.3229C82.409 45.567 82.5451 45.8386 82.623 46.1375C82.7037 46.437 82.7144 46.7661 82.6551 47.1248C82.561 47.6506 82.3476 48.0836 82.0147 48.4237C81.6851 48.7616 81.2527 48.9937 80.7176 49.1201C80.1857 49.2441 79.5699 49.2455 78.8701 49.1241C78.1759 49.0038 77.5897 48.7926 77.1116 48.4906C76.6362 48.189 76.2905 47.8047 76.0745 47.3377C75.8618 46.8683 75.8021 46.3231 75.8954 45.702L77.6546 46.007C77.6242 46.2988 77.6651 46.5538 77.7771 46.7722C77.8925 46.9882 78.0648 47.1666 78.2942 47.3073C78.5268 47.4457 78.7999 47.542 79.1134 47.5964C79.4213 47.6497 79.6964 47.6513 79.9386 47.601C80.1837 47.5513 80.383 47.4575 80.5366 47.3198C80.6903 47.1821 80.785 47.0097 80.821 46.8025C80.8544 46.6094 80.8252 46.4371 80.7332 46.2856C80.6441 46.1347 80.4984 45.9941 80.296 45.8638C80.0965 45.7341 79.8466 45.6043 79.5462 45.4743L78.6506 45.0769C77.9562 44.7748 77.4316 44.3999 77.0767 43.952C76.7219 43.5041 76.6009 42.9627 76.7139 42.3278C76.8014 41.8067 77.0188 41.3758 77.3662 41.0353C77.7163 40.6952 78.1567 40.4587 78.6872 40.3258C79.2177 40.1929 79.7964 40.1808 80.4235 40.2895C81.0617 40.4001 81.5998 40.6059 82.0378 40.9067C82.4786 41.208 82.7982 41.5763 82.9967 42.0114C83.1951 42.4466 83.2541 42.9211 83.1737 43.4348L81.4313 43.1327Z" fill="#5751E1"/>
</g>
</g>
</g>
<defs>
<clipPath id="clip0_1_2079">
<rect width="103" height="78" fill="white" transform="matrix(-1 0 0 1 103 0)"/>
</clipPath>
<clipPath id="clip1_1_2079">
<rect width="103" height="78" fill="white" transform="matrix(-1 0 0 1 103 0)"/>
</clipPath>
<clipPath id="clip2_1_2079">
<rect width="103" height="78" fill="white"/>
</clipPath>
</defs>
</svg>
