<svg width="76" height="81" viewBox="0 0 76 81" fill="none" xmlns="http://www.w3.org/2000/svg">
<rect width="76" height="80.3528" rx="38" transform="matrix(-1 0 0 1 76 0)" fill="white"/>
<g clip-path="url(#clip0_1_2104)">
<path d="M48.8086 52.3132V27.6942C48.8087 27.406 48.7537 27.1226 48.6488 26.8707C48.5438 26.6188 48.3923 26.4068 48.2088 26.2548C48.0252 26.1027 47.8155 26.0157 47.5997 26.0019C47.3838 25.9882 47.1689 26.0481 46.9752 26.176L28.5134 38.3292C28.3017 38.4694 28.1236 38.6856 27.9991 38.9535C27.8745 39.2214 27.8086 39.5304 27.8086 39.8456C27.8086 40.1608 27.8745 40.4697 27.9991 40.7376C28.1236 41.0055 28.3017 41.2217 28.5134 41.3619L46.9752 53.824C47.1685 53.9517 47.3829 54.0116 47.5983 53.9981C47.8137 53.9847 48.023 53.8983 48.2064 53.7472C48.3898 53.596 48.5414 53.385 48.6467 53.1342C48.7521 52.8833 48.8078 52.6008 48.8086 52.3132Z" fill="#E11B24"/>
</g>
<defs>
<clipPath id="clip0_1_2104">
<rect width="22" height="28" fill="white" transform="matrix(-1 0 0 1 49 26)"/>
</clipPath>
</defs>
</svg>
