<svg width="94" height="93" viewBox="0 0 94 93" fill="none" xmlns="http://www.w3.org/2000/svg">
<g clip-path="url(#clip0_1_2183)">
<path d="M20.9844 45.0545C20.303 45.0545 19.75 44.5015 19.75 43.8201V39.3492C19.75 38.9616 19.9302 38.5987 20.2388 38.3666C21.4979 37.4137 22.2188 35.9818 22.2188 34.4388V30.7357C22.2188 28.0127 20.0043 25.7982 17.2812 25.7982C14.5582 25.7982 12.3438 28.0127 12.3438 30.7357V34.4388C12.3438 35.9818 13.0646 37.4137 14.3237 38.3666C14.6323 38.5987 14.8125 38.9641 14.8125 39.3517V43.8226C14.8125 44.5039 14.2595 45.0569 13.5781 45.0569C12.8968 45.0569 12.3438 44.5015 12.3438 43.8201V39.9318C10.7662 38.5222 9.875 36.5521 9.875 34.4388V30.7357C9.875 26.6524 13.1979 23.3295 17.2812 23.3295C21.3646 23.3295 24.6875 26.6524 24.6875 30.7357V34.4388C24.6875 36.5521 23.7963 38.5197 22.2188 39.9318V43.8201C22.2188 44.5015 21.6658 45.0545 20.9844 45.0545Z" fill="white"/>
<path d="M18.5233 41.7217C17.9506 41.7217 17.4371 41.3192 17.3161 40.7366C17.1803 40.0676 17.6099 39.4158 18.2789 39.2801C20.56 38.8085 22.2191 36.7743 22.2191 34.4388C22.2191 33.7575 22.772 33.2045 23.4534 33.2045C24.1348 33.2045 24.6878 33.7575 24.6878 34.4388C24.6878 37.9395 22.1993 40.9909 18.7727 41.6945C18.6887 41.7118 18.6073 41.7217 18.5233 41.7217Z" fill="white"/>
<path d="M25.6103 46.99C25.4474 46.99 25.282 46.9579 25.124 46.8887L20.4975 44.9014C19.8705 44.6323 19.5816 43.9065 19.8507 43.2794C20.1173 42.6499 20.8432 42.366 21.4702 42.6326L26.0967 44.62C26.7237 44.8891 27.0126 45.6149 26.7435 46.2419C26.5435 46.711 26.0868 46.99 25.6103 46.99Z" fill="white"/>
<path d="M9.875 61.9333C9.70466 61.9333 9.52938 61.8987 9.36397 61.8222L4.63878 59.6744C3.32047 59.072 2.46875 57.7488 2.46875 56.3021V52.8804C2.46875 49.4192 4.51781 46.3086 7.68769 44.9557L13.0868 42.6129C13.7188 42.3413 14.4397 42.6277 14.7113 43.2523C14.9804 43.8769 14.694 44.6052 14.0694 44.8767L8.66531 47.222C6.399 48.1922 4.9375 50.4117 4.9375 52.8804V56.3021C4.9375 56.7835 5.22141 57.2279 5.66084 57.4278L10.386 59.5756C11.0057 59.8571 11.2797 60.5903 10.9983 61.21C10.7909 61.6642 10.3416 61.9333 9.875 61.9333Z" fill="white"/>
<path d="M22.0682 32.9823C19.6093 32.9823 17.259 32.1355 15.2717 30.5333C14.7434 30.1062 14.6594 29.331 15.0841 28.8002C15.5161 28.2694 16.2938 28.188 16.8196 28.6151C18.4045 29.8914 20.2857 30.5802 22.2138 30.5135C22.0953 27.8917 19.9277 25.7982 17.2812 25.7982C14.5582 25.7982 12.3438 28.0127 12.3438 30.7357V31.6492C12.3438 32.3305 11.7907 32.8835 11.1094 32.8835C10.428 32.8835 9.875 32.333 9.875 31.6492V30.7357C9.875 26.6524 13.1979 23.3295 17.2812 23.3295C21.3646 23.3295 24.6875 26.6524 24.6875 30.7357V31.5998C24.6875 32.2071 24.2456 32.7231 23.6482 32.8193C23.0779 32.9107 22.5841 32.9823 22.0682 32.9823Z" fill="white"/>
<path d="M65.4219 45.0545C64.7405 45.0545 64.1875 44.5015 64.1875 43.8201V39.3492C64.1875 38.9616 64.3677 38.5987 64.6763 38.3666C65.9354 37.4137 66.6562 35.9818 66.6562 34.4388V30.7357C66.6562 28.0127 64.4418 25.7982 61.7188 25.7982C58.9957 25.7982 56.7812 28.0127 56.7812 30.7357V34.4388C56.7812 35.9818 57.5021 37.4137 58.7612 38.3666C59.0698 38.5987 59.25 38.9641 59.25 39.3517V43.8226C59.25 44.5039 58.697 45.0569 58.0156 45.0569C57.3343 45.0569 56.7812 44.5039 56.7812 43.8226V39.9343C55.2037 38.5246 54.3125 36.5546 54.3125 34.4413V30.7382C54.3125 26.6549 57.6354 23.3319 61.7188 23.3319C65.8021 23.3319 69.125 26.6549 69.125 30.7382V34.4413C69.125 36.5546 68.2338 38.5222 66.6562 39.9343V43.8226C66.6562 44.5015 66.1032 45.0545 65.4219 45.0545Z" fill="white"/>
<path d="M62.9608 41.7217C62.3881 41.7217 61.8746 41.3192 61.7536 40.7366C61.6178 40.0676 62.0474 39.4158 62.7164 39.2801C64.9975 38.8085 66.6565 36.7743 66.6565 34.4388C66.6565 33.7575 67.2096 33.2045 67.8909 33.2045C68.5723 33.2045 69.1253 33.7575 69.1253 34.4388C69.1253 37.9395 66.6368 40.9909 63.2102 41.6945C63.1262 41.7118 63.0448 41.7217 62.9608 41.7217Z" fill="white"/>
<path d="M53.7514 46.8344C53.2749 46.8344 52.8182 46.5555 52.6182 46.0864C52.3491 45.4618 52.638 44.7335 53.2651 44.4644L57.5286 42.6326C58.1507 42.3685 58.879 42.6499 59.1481 43.2794C59.4172 43.904 59.1283 44.6323 58.5013 44.9014L54.2377 46.7332C54.0797 46.8023 53.9168 46.8344 53.7514 46.8344Z" fill="white"/>
<path d="M69.1249 61.9333C68.6583 61.9333 68.209 61.6642 68.0016 61.21C67.7202 60.5903 67.9942 59.8571 68.6139 59.5756L73.3391 57.4278C73.7785 57.2279 74.0624 56.786 74.0624 56.3021V52.8804C74.0624 50.4117 72.6009 48.1922 70.342 47.227L64.9305 44.8767C64.3059 44.6052 64.0195 43.8793 64.2886 43.2523C64.5602 42.6252 65.2761 42.3388 65.9131 42.6129L71.3172 44.9582C74.4821 46.3086 76.5311 49.4192 76.5311 52.8804V56.3021C76.5311 57.7488 75.6794 59.072 74.3611 59.6744L69.6359 61.8222C69.4705 61.8963 69.2952 61.9333 69.1249 61.9333Z" fill="white"/>
<path d="M42.7341 29.294C39.2235 29.294 35.5698 28.0571 33.5553 26.2451C33.0467 25.7883 33.0047 25.0082 33.4614 24.5021C33.9182 23.996 34.7057 23.9541 35.2044 24.4108C37.6386 26.5981 43.4697 27.7411 46.81 25.9488C47.4099 25.6254 48.1604 25.8501 48.4813 26.4524C48.8047 27.0548 48.5776 27.8004 47.9777 28.1238C46.4545 28.936 44.6152 29.294 42.7341 29.294Z" fill="white"/>
<path d="M39.4828 51.7201C35.3872 51.7201 33.2517 48.5255 32.6938 46.8344C32.479 46.1852 32.832 45.489 33.4788 45.2742C34.1256 45.0619 34.8193 45.4124 35.0341 46.0543C35.086 46.2024 36.1796 49.249 39.4828 49.249C42.8132 49.249 43.9858 46.1086 44.0377 45.9753C44.2673 45.3359 44.9832 45.0026 45.6127 45.2297C46.2521 45.4569 46.5904 46.1556 46.3657 46.7975C46.2941 46.9999 44.5882 51.7201 39.4828 51.7201Z" fill="white"/>
<path d="M62.9531 61.5951C62.2718 61.5951 61.7188 61.0421 61.7188 60.3607V59.6719C61.7188 56.0108 59.4105 52.7372 55.9764 51.53L45.6793 47.8762C44.198 47.3603 43.2031 45.958 43.2031 44.3904V41.3538C43.2031 40.6724 43.7561 40.1194 44.4375 40.1194C45.1189 40.1194 45.6719 40.6724 45.6719 41.3538V44.3904C45.6719 44.9088 46.0052 45.3729 46.4989 45.5457L56.7985 49.202C61.2176 50.7548 64.1875 54.964 64.1875 59.6719V60.3632C64.1875 61.0446 63.6345 61.5951 62.9531 61.5951Z" fill="white"/>
<path d="M16.0469 61.595C15.3655 61.595 14.8125 61.042 14.8125 60.3606V59.694C14.8125 58.9238 14.894 58.1511 15.0544 57.3882C15.8494 53.6283 18.5996 50.493 22.2237 49.1994L32.4986 45.595C32.9948 45.4222 33.3281 44.9556 33.3281 44.4372V41.3512C33.3281 40.6699 33.8811 40.1169 34.5625 40.1169C35.2439 40.1169 35.7969 40.6699 35.7969 41.3512V44.4372C35.7969 46.0024 34.802 47.4046 33.3158 47.9255L23.0483 51.5274C20.2265 52.5322 18.0885 54.9738 17.4689 57.8993C17.343 58.4918 17.2812 59.0966 17.2812 59.694V60.3606C17.2812 61.0445 16.7282 61.595 16.0469 61.595Z" fill="white"/>
<path d="M39.5 44.3138C38.8186 44.3138 38.2656 43.7608 38.2656 43.0795C38.2656 42.3981 38.8186 41.8451 39.5 41.8451C42.0626 41.8451 46.9062 39.5245 46.9062 30.7357V27.0326C46.9062 22.9493 43.5833 19.6263 39.5 19.6263C35.4167 19.6263 32.0938 22.9493 32.0938 27.0326V30.7357C32.0938 34.9918 33.2318 38.2481 35.3821 40.1515C35.8932 40.6033 35.9425 41.3834 35.4883 41.8945C35.0316 42.408 34.2539 42.4499 33.7478 42.0006C31.8666 40.3367 29.625 37.0335 29.625 30.7357V27.0326C29.625 21.5865 34.0539 17.1576 39.5 17.1576C44.9461 17.1576 49.375 21.5865 49.375 27.0326V30.7357C49.375 41.4772 42.9167 44.3138 39.5 44.3138Z" fill="white"/>
<path d="M58.3076 83.8139C57.8534 83.8139 57.4189 83.5621 57.2016 83.1276C56.9004 82.5153 57.1498 81.7771 57.762 81.4735L63.8672 78.4493C64.2104 78.2789 64.6202 78.2789 64.9609 78.4493L68.9504 80.4267L68.3011 76.0225C68.2468 75.6423 68.3702 75.2547 68.6418 74.9807L71.7598 71.7935L67.3655 71.0455C66.9877 70.9813 66.6594 70.7418 66.4792 70.4012L64.4153 66.4561L62.349 70.4012C62.1687 70.7418 61.8404 70.9813 61.4627 71.0455L57.0708 71.7935L60.1863 74.9807C60.6628 75.4695 60.6529 76.2496 60.1666 76.7261C59.6778 77.205 58.8952 77.1951 58.4212 76.7063L53.659 71.8355C53.338 71.5071 53.2245 71.0282 53.3676 70.5912C53.5108 70.1543 53.8811 69.8333 54.3354 69.7568L60.448 68.715L63.3241 63.2245C63.5389 62.8171 63.961 62.5629 64.4178 62.5629C64.8794 62.5629 65.2966 62.8196 65.5114 63.2245L68.385 68.715L74.5001 69.7568C74.9544 69.8333 75.3247 70.1567 75.4679 70.5912C75.6111 71.0257 75.4975 71.5071 75.1766 71.8355L70.839 76.2669L71.7425 82.3993C71.8067 82.8535 71.6166 83.3078 71.2463 83.5769C70.876 83.8484 70.3823 83.8904 69.9725 83.683L64.4178 80.9304L58.8606 83.683C58.6804 83.7744 58.4928 83.8139 58.3076 83.8139Z" fill="#807AF9"/>
<path d="M32.2812 90.5313C32.0244 90.5313 31.7701 90.4523 31.5553 90.2968C31.185 90.0277 30.9925 89.5735 31.0591 89.1167L32.1404 81.7524L26.9363 76.4298C26.6154 76.1015 26.5018 75.6225 26.645 75.1856C26.7882 74.7486 27.1585 74.4252 27.6127 74.3511L34.9548 73.1019L38.4061 66.5079C38.8357 65.6932 40.1663 65.6932 40.5959 66.5079L44.0472 73.1019L51.3893 74.3511C51.8435 74.4277 52.2138 74.7511 52.357 75.1856C52.5002 75.6201 52.3866 76.1015 52.0657 76.4298L46.8591 81.7524L47.9429 89.1167C48.0071 89.571 47.817 90.0252 47.4467 90.2943C47.0764 90.5684 46.5826 90.6054 46.1728 90.4005L39.4998 87.0948L32.8292 90.4005C32.6564 90.4869 32.4688 90.5313 32.2812 90.5313ZM30.3481 76.3879L34.3327 80.4638C34.6018 80.7403 34.7277 81.1254 34.6734 81.5056L33.8439 87.1417L38.9517 84.6113C39.2949 84.4384 39.7047 84.4384 40.0454 84.6113L45.1507 87.1417L44.3212 81.5056C44.2669 81.1254 44.3904 80.7378 44.6619 80.4638L48.649 76.3879L43.0276 75.43C42.6499 75.3658 42.3216 75.1263 42.1413 74.7856L39.4998 69.737L36.8582 74.7856C36.678 75.1263 36.3496 75.3658 35.9719 75.43L30.3481 76.3879Z" fill="#5751E1"/>
<path d="M20.8921 83.8139C20.707 83.8139 20.5218 83.7719 20.344 83.6855L14.7894 80.9328L9.23222 83.688C8.82488 83.8904 8.3336 83.8509 7.95835 83.5793C7.58803 83.3103 7.39547 82.856 7.46213 82.4018L8.36569 76.2694L4.0281 71.838C3.70716 71.5096 3.5936 71.0307 3.73678 70.5937C3.87997 70.1568 4.25028 69.8334 4.70453 69.7593L10.8196 68.7175L13.6957 63.227C13.9105 62.8196 14.3326 62.5654 14.7894 62.5654C15.251 62.5654 15.6682 62.8221 15.883 63.227L18.7566 68.7175L24.8693 69.7593C25.3235 69.8358 25.6938 70.1592 25.837 70.5937C25.9802 71.0282 25.8666 71.5096 25.5457 71.838L20.7835 76.7063C20.312 77.1952 19.5294 77.205 19.0381 76.7261C18.5517 76.2496 18.5419 75.4695 19.0183 74.9807L22.1339 71.7935L17.742 71.0455C17.3618 70.9813 17.0359 70.7419 16.8557 70.4012L14.7918 66.4561L12.7255 70.4012C12.5453 70.7419 12.2169 70.9813 11.8392 71.0455L7.44485 71.7935L10.5629 74.9807C10.832 75.2572 10.9579 75.6423 10.9035 76.0225L10.2543 80.4268L14.2462 78.4493C14.5894 78.2789 14.9992 78.2789 15.3399 78.4493L21.4426 81.4735C22.0549 81.7772 22.3042 82.5153 22.003 83.1276C21.7809 83.5621 21.3439 83.8139 20.8921 83.8139Z" fill="#807AF9"/>
<path d="M94 13.4234C93.4937 13.8003 93.2405 14.1772 92.9873 14.3029C91.7215 14.8055 90.4557 15.308 89.1899 15.8106C87.2911 16.4388 86.1519 17.6953 85.8987 19.7056C85.6456 21.339 85.3924 22.9724 85.0127 24.6058C84.8861 25.1083 84.5063 25.8622 84.1266 25.9879C83.3671 26.1135 83.3671 25.234 83.2405 24.7314C82.7342 23.2237 82.2278 21.5903 81.8481 20.0825C81.2152 17.9466 79.8228 16.8158 77.5443 16.8158C76.6582 16.8158 75.8987 16.6901 75.0127 16.5645C74.5063 16.5645 74.2532 16.3132 74 16.0619C74.2532 15.8106 74.3797 15.4337 74.6329 15.308C75.8987 14.8055 77.2911 14.3029 78.557 13.9259C79.8228 13.549 80.7089 12.6695 80.962 11.413C81.4684 9.40273 81.8481 7.39241 82.3544 5.50774C82.6076 4.87951 82.3544 4 83.2405 4C84.1266 4 84 4.75387 84.1266 5.25645C84.5063 7.01548 84.8861 8.64886 85.3924 10.4079C86.0253 12.6695 86.5316 13.0464 88.9367 13.0464C90.2025 13.0464 91.5949 12.9208 92.8608 12.9208C92.9873 12.9208 93.3671 13.1721 94 13.4234Z" fill="#434087"/>
<path d="M77 4.71168C76.7468 4.90015 76.6203 5.08862 76.4937 5.15144C75.8608 5.40273 75.2278 5.65402 74.5949 5.90531C73.6456 6.21942 73.0759 6.84765 72.9494 7.85281C72.8228 8.6695 72.6962 9.48619 72.5063 10.3029C72.443 10.5542 72.2532 10.9311 72.0633 10.9939C71.6835 11.0568 71.6835 10.617 71.6203 10.3657C71.3671 9.61184 71.1139 8.79514 70.9241 8.04127C70.6076 6.97329 69.9114 6.40789 68.7722 6.40789C68.3291 6.40789 67.9494 6.34507 67.5063 6.28225C67.2532 6.28225 67.1266 6.1566 67 6.03096C67.1266 5.90531 67.1899 5.71684 67.3165 5.65402C67.9494 5.40273 68.6456 5.15144 69.2785 4.96297C69.9114 4.77451 70.3544 4.33475 70.481 3.70652C70.7342 2.70137 70.9241 1.69621 71.1772 0.753869C71.3038 0.439757 71.1772 0 71.6203 0C72.0633 0 72 0.376935 72.0633 0.628225C72.2532 1.50774 72.443 2.32443 72.6962 3.20395C73.0127 4.33475 73.2658 4.52322 74.4684 4.52322C75.1013 4.52322 75.7975 4.46039 76.4304 4.46039C76.4937 4.46039 76.6835 4.58604 77 4.71168Z" fill="#6663A9"/>
</g>
<defs>
<clipPath id="clip0_1_2183">
<rect width="94" height="93" fill="white"/>
</clipPath>
</defs>
</svg>
