<svg width="92" height="89" viewBox="0 0 92 89" fill="none" xmlns="http://www.w3.org/2000/svg">
<g clip-path="url(#clip0_1_2223)" filter="url(#filter0_d_1_2223)">
<mask id="mask0_1_2223" style="mask-type:luminance" maskUnits="userSpaceOnUse" x="4" y="19" width="62" height="62">
<path d="M66 19H4V81H66V19Z" fill="white"/>
</mask>
<g mask="url(#mask0_1_2223)">
<path d="M28.8327 26.1362C28.6075 25.9109 28.295 25.7812 27.9766 25.7812C27.6581 25.7812 27.3457 25.9108 27.1204 26.1362C26.8952 26.3614 26.7656 26.6738 26.7656 26.9923C26.7656 27.3108 26.8952 27.6231 27.1204 27.8482C27.3457 28.0736 27.6581 28.2031 27.9766 28.2031C28.295 28.2031 28.6075 28.0736 28.8327 27.8482C29.0579 27.6231 29.1875 27.3108 29.1875 26.9923C29.1875 26.6738 29.0579 26.3614 28.8327 26.1362Z" fill="#5751E1"/>
<path d="M23.5014 25.7812H18.6367C17.9679 25.7812 17.4258 26.3236 17.4258 26.9923C17.4258 27.661 17.9679 28.2031 18.6367 28.2031H23.5014C24.1702 28.2031 24.7124 27.661 24.7124 26.9923C24.7124 26.3236 24.1702 25.7812 23.5014 25.7812Z" fill="#5751E1"/>
<path d="M24.4727 32.5625H18.6367C17.9679 32.5625 17.4258 33.1048 17.4258 33.7734C17.4258 34.4421 17.9679 34.9844 18.6367 34.9844H24.4727C25.1415 34.9844 25.6836 34.4421 25.6836 33.7734C25.6836 33.1048 25.1415 32.5625 24.4727 32.5625Z" fill="#5751E1"/>
<path d="M65.5326 44.2018C65.5327 44.2014 65.5329 44.2012 65.5331 44.2008L57.5409 37.977C57.5352 37.9726 57.5291 37.9691 57.5234 37.9647V36.6797C57.5234 36.011 56.9813 35.4688 56.3125 35.4688C55.6437 35.4688 55.1016 36.011 55.1016 36.6797V53.1081C55.1016 53.1155 55.1025 53.1226 55.1027 53.13L45.0828 63.1499L43.9226 62.0961C42.1093 60.4487 39.8997 59.3505 37.5317 58.8917L40.6758 55.7476C41.1487 55.2747 41.1487 54.508 40.6758 54.035L36.6082 49.9673L54.3344 42.4101C54.7044 42.2523 54.972 41.9211 55.0484 41.5262C55.1248 41.1313 55.0002 40.7242 54.7158 40.4398L48.9276 34.6515C49.4175 33.8519 49.6802 32.9311 49.6802 31.9696C49.6802 30.5947 49.1448 29.3023 48.1727 28.33C47.2006 27.3579 45.908 26.8225 44.5331 26.8225C43.5716 26.8225 42.6508 27.0852 41.8512 27.5751L36.063 21.7869C35.7784 21.5023 35.3715 21.3773 34.9763 21.4543C34.5813 21.5309 34.2502 21.7986 34.0925 22.1687L25.9319 41.3348L21.5396 45.727C20.3054 46.9612 19.6256 48.6022 19.6256 50.3477C19.6256 52.0931 20.3054 53.734 21.5396 54.9682C22.7738 56.2024 24.4148 56.8822 26.1603 56.8822C27.9057 56.8822 29.5467 56.2025 30.7809 54.9682L31.2427 54.5064L35.3906 58.6543C35.2606 58.6506 35.1303 58.6479 34.9998 58.6479C31.6933 58.6479 28.5245 59.8723 26.0771 62.0957L24.9169 63.1496L14.897 53.1297C14.8971 53.1223 14.8981 53.1151 14.8981 53.1076V21.4219H28.459C29.1278 21.4219 29.6699 20.8796 29.6699 20.2109C29.6699 19.5423 29.1278 19 28.459 19H13.6875C13.0187 19 12.4766 19.5423 12.4766 20.2109V37.7712C12.4661 37.7791 12.4551 37.7859 12.445 37.7941L4.45277 44.2121C4.45265 44.2118 4.45289 44.2123 4.45277 44.2121C4.1768 44.434 4 44.7746 4 45.1562V74.8242C4 78.2295 6.77038 81 10.1758 81H59.8242C63.2296 81 66 78.2295 66 74.8242V45.1562C66 44.768 65.8167 44.4234 65.5326 44.2018ZM57.5234 41.0329L62.9635 45.2692L57.5234 50.7092V41.0329ZM44.5332 29.2447C45.2611 29.2447 45.9455 29.5281 46.4603 30.0429C46.975 30.5576 47.2584 31.2419 47.2584 31.9699C47.2584 32.2702 47.2076 32.5621 47.1147 32.8388L43.6643 29.3883C43.941 29.2954 44.2329 29.2447 44.5332 29.2447ZM35.6185 24.7676L40.8922 30.0412C40.8927 30.0417 40.8932 30.0423 40.8936 30.0429C40.8941 30.0435 40.8947 30.0439 40.8953 30.0444L46.4602 35.6092L51.7361 40.8852L49.1653 41.9812L34.5235 27.3394L35.6185 24.7676ZM33.5006 29.7417L46.7638 43.0049L34.7629 48.1214L28.3889 41.7473L33.5006 29.7417ZM29.0686 53.256C28.2919 54.0328 27.2591 54.4606 26.1605 54.4606C25.062 54.4606 24.0292 54.0328 23.2523 53.256C22.4755 52.4793 22.0477 51.4465 22.0477 50.3479C22.0477 49.2493 22.4755 48.2165 23.2523 47.4397L26.9543 43.7378L32.7703 49.5544L29.0686 53.256ZM32.9555 52.7941L34.4827 51.267L38.107 54.8913L36.5798 56.4185L32.9555 52.7941ZM12.4766 40.8747V50.7094L7.02214 45.2549L12.4766 40.8747ZM8.52055 78.0452C8.48628 78.0763 8.45468 78.1094 8.42477 78.1433C7.23478 77.513 6.42188 76.2621 6.42188 74.8242V48.0798L23.1225 64.7803L8.52055 78.0452ZM11.5357 78.5781L15.5347 74.9453H24.4233C25.0921 74.9453 25.6342 74.4031 25.6342 73.7344C25.6342 73.0657 25.0921 72.5234 24.4233 72.5234H18.2007L27.7059 63.8885C31.8643 60.111 38.1358 60.111 42.2942 63.8885L58.4643 78.5781H11.5357ZM63.5781 74.8242C63.5781 76.2621 62.7652 77.513 61.5752 78.1433C61.5453 78.1092 61.5137 78.0763 61.4795 78.0452L46.8776 64.7803L63.5781 48.0798V74.8242Z" fill="#807AF9"/>
<path d="M57.2167 19.4025C56.7438 18.9298 55.977 18.9298 55.5042 19.4025L50.6125 24.2942C50.1396 24.7671 50.1396 25.5339 50.6125 26.0069C50.849 26.2432 51.1588 26.3616 51.4687 26.3616C51.7786 26.3616 52.0886 26.2432 52.325 26.0069L57.2167 21.1152C57.6896 20.6423 57.6896 19.8755 57.2167 19.4025Z" fill="white"/>
<path d="M46.9179 19C46.2491 19 45.707 19.5423 45.707 20.2109V22.6433C45.707 23.312 46.2491 23.8543 46.9179 23.8543C47.5867 23.8543 48.1288 23.312 48.1288 22.6433V20.2109C48.1288 19.5423 47.5867 19 46.9179 19Z" fill="white"/>
<path d="M56.3966 28.3873H53.8828C53.214 28.3873 52.6719 28.9296 52.6719 29.5983C52.6719 30.2669 53.214 30.8092 53.8828 30.8092H56.3966C57.0654 30.8092 57.6076 30.2669 57.6076 29.5983C57.6076 28.9296 57.0654 28.3873 56.3966 28.3873Z" fill="white"/>
<path d="M30.2448 72.8782C30.0184 72.653 29.7071 72.5234 29.3887 72.5234C29.069 72.5234 28.7578 72.6529 28.5313 72.8782C28.3061 73.1035 28.1777 73.4159 28.1777 73.7344C28.1777 74.0529 28.3061 74.3653 28.5313 74.5904C28.7578 74.8157 29.0702 74.9453 29.3887 74.9453C29.7071 74.9453 30.0184 74.8157 30.2448 74.5904C30.47 74.3653 30.5996 74.0529 30.5996 73.7344C30.5996 73.4159 30.47 73.1035 30.2448 72.8782Z" fill="white"/>
</g>
<path d="M88 13.4234C87.4937 13.8003 87.2405 14.1772 86.9873 14.3029C85.7215 14.8055 84.4557 15.308 83.1899 15.8106C81.2911 16.4388 80.1519 17.6953 79.8987 19.7056C79.6456 21.339 79.3924 22.9724 79.0127 24.6058C78.8861 25.1083 78.5063 25.8622 78.1266 25.9879C77.3671 26.1135 77.3671 25.234 77.2405 24.7314C76.7342 23.2237 76.2278 21.5903 75.8481 20.0825C75.2152 17.9466 73.8228 16.8158 71.5443 16.8158C70.6582 16.8158 69.8987 16.6901 69.0127 16.5645C68.5063 16.5645 68.2532 16.3132 68 16.0619C68.2532 15.8106 68.3797 15.4337 68.6329 15.308C69.8987 14.8055 71.2911 14.3029 72.557 13.9259C73.8228 13.549 74.7089 12.6695 74.962 11.413C75.4684 9.40273 75.8481 7.39241 76.3544 5.50774C76.6076 4.87951 76.3544 4 77.2405 4C78.1266 4 78 4.75387 78.1266 5.25645C78.5063 7.01548 78.8861 8.64886 79.3924 10.4079C80.0253 12.6695 80.5316 13.0464 82.9367 13.0464C84.2025 13.0464 85.5949 12.9208 86.8608 12.9208C86.9873 12.9208 87.3671 13.1721 88 13.4234Z" fill="#434087"/>
<path d="M71 4.71168C70.7468 4.90015 70.6203 5.08862 70.4937 5.15144C69.8608 5.40273 69.2278 5.65402 68.5949 5.90531C67.6456 6.21942 67.0759 6.84765 66.9494 7.85281C66.8228 8.6695 66.6962 9.48619 66.5063 10.3029C66.443 10.5542 66.2532 10.9311 66.0633 10.9939C65.6835 11.0568 65.6835 10.617 65.6203 10.3657C65.3671 9.61184 65.1139 8.79514 64.9241 8.04127C64.6076 6.97329 63.9114 6.40789 62.7722 6.40789C62.3291 6.40789 61.9494 6.34507 61.5063 6.28225C61.2532 6.28225 61.1266 6.1566 61 6.03096C61.1266 5.90531 61.1899 5.71684 61.3165 5.65402C61.9494 5.40273 62.6456 5.15144 63.2785 4.96297C63.9114 4.77451 64.3544 4.33475 64.481 3.70652C64.7342 2.70137 64.9241 1.69621 65.1772 0.753869C65.3038 0.439757 65.1772 0 65.6203 0C66.0633 0 66 0.376935 66.0633 0.628225C66.2532 1.50774 66.443 2.32443 66.6962 3.20395C67.0127 4.33475 67.2658 4.52322 68.4684 4.52322C69.1013 4.52322 69.7975 4.46039 70.4304 4.46039C70.4937 4.46039 70.6835 4.58604 71 4.71168Z" fill="#6663A9"/>
</g>
<defs>
<filter id="filter0_d_1_2223" x="0" y="0" width="92" height="89" filterUnits="userSpaceOnUse" color-interpolation-filters="sRGB">
<feFlood flood-opacity="0" result="BackgroundImageFix"/>
<feColorMatrix in="SourceAlpha" type="matrix" values="0 0 0 0 0 0 0 0 0 0 0 0 0 0 0 0 0 0 127 0" result="hardAlpha"/>
<feOffset dy="4"/>
<feGaussianBlur stdDeviation="2"/>
<feComposite in2="hardAlpha" operator="out"/>
<feColorMatrix type="matrix" values="0 0 0 0 0 0 0 0 0 0 0 0 0 0 0 0 0 0 0.25 0"/>
<feBlend mode="normal" in2="BackgroundImageFix" result="effect1_dropShadow_1_2223"/>
<feBlend mode="normal" in="SourceGraphic" in2="effect1_dropShadow_1_2223" result="shape"/>
</filter>
<clipPath id="clip0_1_2223">
<rect width="84" height="81" fill="white" transform="translate(4)"/>
</clipPath>
</defs>
</svg>
