<svg width="20" height="20" viewBox="0 0 20 20" fill="none" xmlns="http://www.w3.org/2000/svg">
<path d="M1.4396 4.97272L8.4982 1.96608C8.9748 1.76745 9.4801 1.66675 10 1.66675C10.5199 1.66675 11.0252 1.76745 11.5018 1.96608C11.5036 1.96687 18.5604 4.97272 18.5604 4.97272C19.435 5.33862 20 6.18722 20 7.1355C20 8.08378 19.435 8.93237 18.5604 9.29827L16.875 10.0162V14.948C16.875 16.2403 15.8236 17.2917 14.5312 17.2917H5.4688C4.1764 17.2917 3.125 16.2403 3.125 14.948V12.8648C3.125 12.4333 3.4748 12.0835 3.9063 12.0835C4.3377 12.0835 4.6875 12.4333 4.6875 12.8648V14.948C4.6875 15.3788 5.038 15.7292 5.4688 15.7292H14.5312C14.962 15.7292 15.3125 15.3788 15.3125 14.948V10.6817C15.3125 10.6817 11.5036 12.3042 11.5018 12.305C11.0252 12.5035 10.5199 12.6042 10 12.6042C9.4802 12.6042 8.9749 12.5035 8.4983 12.305C8.4964 12.3042 1.4396 9.29827 1.4396 9.29827C0.565001 8.93237 0 8.08378 0 7.1355C0 6.18722 0.565001 5.33862 1.4396 4.97272ZM2.0437 7.85726L9.1017 10.8636C9.3862 10.9818 9.6884 11.0417 10 11.0417C10.3117 11.0417 10.6139 10.9818 10.8983 10.8637C11.5991 10.5651 17.9545 7.85804 17.9564 7.85726C18.2486 7.73542 18.4375 7.45214 18.4375 7.1355C18.4375 6.81886 18.2486 6.53558 17.9563 6.41374C17.9545 6.41296 10.8983 3.40733 10.8983 3.40733C10.6139 3.28917 10.3116 3.22925 10 3.22925C9.6884 3.22925 9.3861 3.28917 9.1017 3.40733L2.0437 6.41374C1.7514 6.53558 1.5625 6.81886 1.5625 7.1355C1.5625 7.45214 1.7514 7.73542 2.0437 7.85726Z" fill="#7F7E97"/>
<path d="M0.7813 10.7778C1.2127 10.7778 1.5625 11.1276 1.5625 11.5591V14.9479C1.5625 15.3794 1.2127 15.7291 0.7813 15.7291C0.3498 15.7291 0 15.3794 0 14.9479V11.5591C0 11.1276 0.3498 10.7778 0.7813 10.7778Z" fill="#7F7E97"/>
</svg>
