<svg width="20" height="20" viewBox="0 0 20 20" fill="none" xmlns="http://www.w3.org/2000/svg">
<path d="M0.833635 9.37479C0.832935 8.65706 1.01724 7.95019 1.37034 7.3165C1.72344 6.68281 2.23444 6.14177 2.85824 5.74108C3.48214 5.3404 4.19964 5.09237 4.94764 5.01887C5.69564 4.94538 6.45104 5.04867 7.14734 5.31964C7.84364 5.59061 8.45944 6.02094 8.94034 6.57268C9.42124 7.12442 9.75254 7.78063 9.90504 8.48344C10.0576 9.18626 10.0266 9.9141 9.81484 10.6028C9.60304 11.2915 9.21704 11.9198 8.69084 12.4325V16.8746C8.69084 16.9812 8.66244 17.086 8.60804 17.1791C8.55374 17.2722 8.47534 17.3505 8.38034 17.4066C8.28544 17.4626 8.17694 17.4946 8.06544 17.4994C7.95384 17.5042 7.84294 17.4816 7.74304 17.4339L5.41704 16.323L3.09093 17.4339C2.99113 17.4816 2.88014 17.5042 2.76854 17.4994C2.65704 17.4946 2.54854 17.4626 2.45364 17.4066C2.35864 17.3505 2.28024 17.2722 2.22593 17.1791C2.17154 17.086 2.14314 16.9812 2.14314 16.8746V12.4325C1.30343 11.6167 0.833136 10.5185 0.833635 9.37479ZM5.41704 6.24989C4.76954 6.24989 4.13653 6.43316 3.59813 6.77653C3.05984 7.1199 2.64013 7.60794 2.39244 8.17894C2.14463 8.74995 2.07973 9.37826 2.20613 9.98443C2.33244 10.5906 2.64424 11.1474 3.10204 11.5844C3.55994 12.0215 4.14324 12.3191 4.77834 12.4397C5.41334 12.5602 6.07164 12.4983 6.66984 12.2618C7.26804 12.0253 7.77934 11.6248 8.13904 11.1109C8.49884 10.597 8.69084 9.99284 8.69084 9.37479C8.69084 8.54602 8.34584 7.75119 7.73194 7.16515C7.11794 6.57912 6.28524 6.24989 5.41704 6.24989ZM5.12404 15.0652C5.21494 15.0218 5.31524 14.9992 5.41704 14.9992C5.51874 14.9992 5.61904 15.0218 5.71004 15.0652L7.38124 15.8637V13.327C6.76754 13.6053 6.09654 13.7497 5.41704 13.7497C4.73754 13.7497 4.06654 13.6053 3.45274 13.327V15.8637L5.12404 15.0652ZM10.0003 14.3746C10.0003 14.5404 10.0693 14.6994 10.1921 14.8166C10.3149 14.9338 10.4814 14.9996 10.6551 14.9996H17.8575C18.2048 14.9996 18.5379 14.8679 18.7834 14.6335C19.029 14.3991 19.167 14.0812 19.167 13.7497V3.74996C19.167 3.41845 19.029 3.10052 18.7834 2.86611C18.5379 2.63169 18.2048 2.5 17.8575 2.5H3.45274C3.10544 2.5 2.77234 2.63169 2.52674 2.86611C2.28114 3.10052 2.14314 3.41845 2.14314 3.74996C2.14314 3.91572 2.21214 4.07468 2.33494 4.19189C2.45774 4.3091 2.62434 4.37494 2.79794 4.37494C2.97164 4.37494 3.13813 4.3091 3.26093 4.19189C3.38373 4.07468 3.45274 3.91572 3.45274 3.74996H17.8575V13.7497H10.6551C10.4814 13.7497 10.3149 13.8155 10.1921 13.9327C10.0693 14.0499 10.0003 14.2089 10.0003 14.3746ZM11.3098 9.99978C11.3098 10.1655 11.3788 10.3245 11.5016 10.4417C11.6244 10.5589 11.791 10.6248 11.9646 10.6248H15.2384C15.4121 10.6248 15.5786 10.5589 15.7014 10.4417C15.8242 10.3245 15.8932 10.1655 15.8932 9.99978C15.8932 9.83402 15.8242 9.67505 15.7014 9.55785C15.5786 9.44064 15.4121 9.37479 15.2384 9.37479H11.9646C11.791 9.37479 11.6244 9.44064 11.5016 9.55785C11.3788 9.67505 11.3098 9.83402 11.3098 9.99978ZM11.3098 7.49985C11.3098 7.66561 11.3788 7.82457 11.5016 7.94178C11.6244 8.05899 11.791 8.12483 11.9646 8.12483H15.2384C15.4121 8.12483 15.5786 8.05899 15.7014 7.94178C15.8242 7.82457 15.8932 7.66561 15.8932 7.49985C15.8932 7.3341 15.8242 7.17513 15.7014 7.05792C15.5786 6.94072 15.4121 6.87487 15.2384 6.87487H11.9646C11.791 6.87487 11.6244 6.94072 11.5016 7.05792C11.3788 7.17513 11.3098 7.3341 11.3098 7.49985Z" fill="#7F7E97"/>
</svg>
