<svg width="20" height="20" viewBox="0 0 20 20" fill="none" xmlns="http://www.w3.org/2000/svg">
<path d="M15.7013 9.00506H15.2926V5.25384C15.2926 4.97633 15.1862 4.71018 14.9969 4.51395C14.8077 4.31772 14.5509 4.20748 14.2832 4.20748H11.2553C11.2234 3.57767 10.979 2.97952 10.5648 2.51761C10.1506 2.05569 9.59304 1.75939 8.98948 1.6805C8.64426 1.64366 8.29542 1.68103 7.96477 1.7903C7.63411 1.89957 7.32876 2.07837 7.06778 2.31554C6.80681 2.5527 6.59584 2.84313 6.44804 3.16866C6.30025 3.4942 6.21883 3.84784 6.20885 4.20748H2.67629C2.40861 4.20748 2.15189 4.31772 1.9626 4.51395C1.77332 4.71018 1.66699 4.97633 1.66699 5.25384V9.52825H3.08506C3.47337 9.51655 3.85222 9.65362 4.14919 9.91324C4.44617 10.1729 4.64045 10.5368 4.6949 10.9356C4.71454 11.1544 4.68966 11.375 4.62185 11.5832C4.55404 11.7914 4.44483 11.9825 4.30127 12.1442C4.16018 12.3077 3.98757 12.4388 3.7946 12.5289C3.60163 12.619 3.39258 12.6662 3.18094 12.6673H1.66699V17.287C1.66699 17.5646 1.77332 17.8307 1.9626 18.0269C2.15189 18.2232 2.40861 18.3334 2.67629 18.3334H14.2832C14.5509 18.3334 14.8077 18.2232 14.9969 18.0269C15.1862 17.8307 15.2926 17.5646 15.2926 17.287V14.2369H15.7972C16.1514 14.2388 16.502 14.1634 16.8262 14.0156C17.1504 13.8678 17.441 13.6508 17.679 13.3789C17.917 13.107 18.0971 12.7862 18.2076 12.4373C18.3181 12.0885 18.3566 11.7194 18.3205 11.3542C18.2387 10.6973 17.9264 10.0947 17.4433 9.66143C16.9602 9.22813 16.3401 8.99447 15.7013 9.00506ZM16.9175 12.6673C16.7764 12.8309 16.6038 12.9619 16.4109 13.0521C16.2179 13.1422 16.0088 13.1893 15.7972 13.1905H14.2832V17.287H2.67629V13.7137H3.18094C3.53512 13.7156 3.88571 13.6402 4.20992 13.4924C4.53413 13.3446 4.82469 13.1277 5.0627 12.8557C5.30071 12.5838 5.48083 12.263 5.59136 11.9142C5.70188 11.5653 5.74033 11.1962 5.7042 10.831C5.62241 10.1741 5.31015 9.57156 4.82704 9.13825C4.34392 8.70495 3.72379 8.47129 3.08506 8.48188H2.67629V5.25384H7.21815V4.29642C7.21929 4.07701 7.26479 3.86028 7.35171 3.66022C7.43864 3.46016 7.56505 3.28123 7.72281 3.13495C7.87874 2.98612 8.06308 2.8729 8.26389 2.8026C8.4647 2.7323 8.67751 2.7065 8.88855 2.72687C9.27319 2.78331 9.62428 2.98473 9.87471 3.29261C10.1251 3.60049 10.2573 3.99325 10.246 4.39582V5.25384H14.2832V10.0514H15.7013C16.0896 10.0397 16.4685 10.1768 16.7655 10.4364C17.0624 10.6961 17.2567 11.06 17.3112 11.4588C17.3308 11.6776 17.3059 11.8982 17.2381 12.1064C17.1703 12.3146 17.0611 12.5057 16.9175 12.6673Z" fill="#7F7E97"/>
</svg>
