<svg width="20" height="20" viewBox="0 0 20 20" fill="none" xmlns="http://www.w3.org/2000/svg">
<g clip-path="url(#clip0_1_4520)">
<mask id="mask0_1_4520" style="mask-type:luminance" maskUnits="userSpaceOnUse" x="0" y="0" width="20" height="20">
<path d="M20 0H0V20H20V0Z" fill="white"/>
</mask>
<g mask="url(#mask0_1_4520)">
<path d="M19.9979 9.96833C19.9979 10.4059 19.9979 10.8434 19.9355 11.2809C19.8731 11.5934 19.5611 11.8434 19.2491 11.8434C18.9371 11.8434 18.6876 11.4684 18.6876 11.1559C18.7499 10.7184 18.7499 10.3433 18.7499 9.96833C18.7499 5.15563 14.8189 1.21797 10.0143 1.21797C9.63997 1.21797 9.26559 1.21797 8.82881 1.28047C8.51682 1.34297 8.14244 1.09296 8.14244 0.780451C8.08004 0.467938 8.32963 0.092922 8.64162 0.092922C14.1326 -0.657109 19.1243 3.21805 19.8731 8.65578C19.9979 9.0933 19.9979 9.53081 19.9979 9.96833Z" fill="#7F7E97"/>
<path d="M6.64548 18.0311C5.95911 17.7186 5.27274 17.3435 4.64877 16.906C4.39918 16.7185 3.9624 16.7185 3.77521 17.031C3.58802 17.281 3.58802 17.7186 3.9 17.9061C4.58637 18.4061 5.33514 18.9061 6.1463 19.2186C6.45829 19.3436 6.83267 19.2186 6.95746 18.9061C7.14466 18.5311 7.01986 18.1561 6.64548 18.0311Z" fill="#7F7E97"/>
<path d="M4.27404 3.15547C4.39883 3.15547 4.52362 3.09297 4.64842 3.03046C5.27239 2.59295 5.89636 2.15543 6.58273 1.90542C6.89472 1.78041 7.08191 1.4054 6.95711 1.09288C6.83232 0.780369 6.45794 0.592861 6.14595 0.717866C5.33479 1.03038 4.58602 1.4679 3.89965 2.03042C3.65006 2.28043 3.58767 2.65545 3.77486 2.90546C3.89965 3.09297 4.08684 3.15547 4.27404 3.15547Z" fill="#7F7E97"/>
<path d="M1.96585 13.3436C1.84106 13.0311 1.46667 12.8436 1.15469 12.9686C0.842698 13.0936 0.655506 13.4686 0.780301 13.7811C1.09229 14.5936 1.52907 15.3437 2.09065 16.0312C2.27784 16.2812 2.71462 16.3437 2.96421 16.1562C3.21379 15.9687 3.27619 15.5312 3.089 15.2812C2.65222 14.7186 2.21544 14.0311 1.96585 13.3436Z" fill="#7F7E97"/>
<path d="M1.34154 11.156C1.21674 10.406 1.21674 9.65587 1.34154 8.84334C1.40394 8.53082 1.15435 8.21831 0.779965 8.15581C0.405582 8.0933 0.155993 8.34332 0.0935958 8.71833C-0.0311986 9.59337 -0.0311986 10.4685 0.0935958 11.3435C0.155993 11.656 0.405582 11.906 0.717567 11.906H0.779965C1.15435 11.781 1.40394 11.4685 1.34154 11.156Z" fill="#7F7E97"/>
<path d="M1.09223 6.96829C1.40422 7.09329 1.7786 6.96829 1.90339 6.65577C2.21538 5.96825 2.58976 5.28072 3.02654 4.65569C3.21373 4.40568 3.21373 3.96816 2.90175 3.78066C2.65216 3.59315 2.27778 3.65565 2.09059 3.90566C1.59141 4.59319 1.15463 5.34322 0.780244 6.15575C0.655449 6.46827 0.780244 6.84328 1.09223 6.96829Z" fill="#7F7E97"/>
<path d="M15.3184 16.9061C14.6944 17.3436 14.0705 17.7812 13.3217 18.0312C13.0097 18.1562 12.8225 18.5312 12.9473 18.8437C13.0721 19.1562 13.4465 19.3437 13.7585 19.2187C14.5696 18.9062 15.3184 18.4687 16.0048 17.9062C16.2544 17.7187 16.3168 17.3436 16.1296 17.0311C16.0048 16.7811 15.6304 16.7186 15.3184 16.9061Z" fill="#7F7E97"/>
<path d="M11.1374 18.6563C10.3886 18.7813 9.6399 18.7813 8.82874 18.6563C8.51675 18.5938 8.20477 18.8438 8.14237 19.2188C8.07997 19.5313 8.32956 19.8438 8.70395 19.9063C9.57751 20.0314 10.451 20.0314 11.3246 19.9063C11.6366 19.8438 11.8862 19.5313 11.8862 19.2188C11.8238 18.8438 11.5118 18.5938 11.1374 18.6563Z" fill="#7F7E97"/>
<path d="M18.8755 13.0311C18.5636 12.9061 18.1892 13.0311 18.0644 13.3436C17.7524 14.0311 17.378 14.7186 16.9412 15.3437C16.754 15.5937 16.754 16.0312 17.066 16.2187C17.378 16.4062 17.7524 16.4062 17.9396 16.0937C18.5012 15.4062 18.9379 14.6561 19.2499 13.8436C19.3747 13.5311 19.1875 13.1561 18.8755 13.0311Z" fill="#7F7E97"/>
<path d="M10.0146 4.40552C9.64021 4.40552 9.39062 4.65553 9.39062 5.03055V10.0307C9.39062 10.4058 9.64021 10.6558 10.0146 10.6558H15.0064C15.3808 10.6558 15.6304 10.4058 15.6304 10.0307C15.6304 9.65574 15.3808 9.40573 15.0064 9.40573H10.6386V5.03055C10.6386 4.65553 10.389 4.40552 10.0146 4.40552Z" fill="#7F7E97"/>
</g>
</g>
<defs>
<clipPath id="clip0_1_4520">
<rect width="20" height="20" fill="white"/>
</clipPath>
</defs>
</svg>
