<svg width="40" height="40" viewBox="0 0 40 40" fill="none" xmlns="http://www.w3.org/2000/svg">
<rect x="-0.5" y="0.5" width="39" height="39" rx="3.5" transform="matrix(-1 0 0 1 39 0)" fill="#5751E1"/>
<rect x="-0.5" y="0.5" width="39" height="39" rx="3.5" transform="matrix(-1 0 0 1 39 0)" stroke="#5751E1"/>
<g clip-path="url(#clip0_1_6025)">
<path d="M23 12H27C27.5523 12 28 12.4477 28 13V17C28 17.5523 27.5523 18 27 18H23C22.4477 18 22 17.5523 22 17V13C22 12.4477 22.4477 12 23 12Z" stroke="white" stroke-width="2" stroke-linecap="round" stroke-linejoin="round"/>
<path d="M13 12H17C17.5523 12 18 12.4477 18 13V17C18 17.5523 17.5523 18 17 18H13C12.4477 18 12 17.5523 12 17V13C12 12.4477 12.4477 12 13 12Z" stroke="white" stroke-width="2" stroke-linecap="round" stroke-linejoin="round"/>
<path d="M23 22H27C27.5523 22 28 22.4477 28 23V27C28 27.5523 27.5523 28 27 28H23C22.4477 28 22 27.5523 22 27V23C22 22.4477 22.4477 22 23 22Z" stroke="white" stroke-width="2" stroke-linecap="round" stroke-linejoin="round"/>
<path d="M13 22H17C17.5523 22 18 22.4477 18 23V27C18 27.5523 17.5523 28 17 28H13C12.4477 28 12 27.5523 12 27V23C12 22.4477 12.4477 22 13 22Z" stroke="white" stroke-width="2" stroke-linecap="round" stroke-linejoin="round"/>
</g>
<defs>
<clipPath id="clip0_1_6025">
<rect width="18" height="18" fill="white" transform="matrix(-1 0 0 1 29 11)"/>
</clipPath>
</defs>
</svg>
