<svg width="40" height="40" viewBox="0 0 40 40" fill="none" xmlns="http://www.w3.org/2000/svg">
<rect x="-0.5" y="0.5" width="39" height="39" rx="3.5" transform="matrix(-1 0 0 1 39 0)" stroke="#6196EA"/>
<g clip-path="url(#clip0_1_6031)">
<path d="M28 18.5C28.83 18.5 29.5 19.17 29.5 20C29.5 20.83 28.83 21.5 28 21.5C27.17 21.5 26.5 20.83 26.5 20C26.5 19.17 27.17 18.5 28 18.5ZM28 12.5C28.83 12.5 29.5 13.17 29.5 14C29.5 14.83 28.83 15.5 28 15.5C27.17 15.5 26.5 14.83 26.5 14C26.5 13.17 27.17 12.5 28 12.5ZM28 24.5C28.83 24.5 29.5 25.18 29.5 26C29.5 26.82 28.82 27.5 28 27.5C27.18 27.5 26.5 26.82 26.5 26C26.5 25.18 27.17 24.5 28 24.5ZM24 27H12C11.45 27 11 26.55 11 26C11 25.45 11.45 25 12 25H24C24.55 25 25 25.45 25 26C25 26.55 24.55 27 24 27ZM24 21H12C11.45 21 11 20.55 11 20C11 19.45 11.45 19 12 19H24C24.55 19 25 19.45 25 20C25 20.55 24.55 21 24 21ZM25 14C25 14.55 24.55 15 24 15H12C11.45 15 11 14.55 11 14C11 13.45 11.45 13 12 13H24C24.55 13 25 13.45 25 14Z" fill="#5751E1"/>
</g>
<defs>
<clipPath id="clip0_1_6031">
<rect width="19" height="15" fill="white" transform="matrix(-1 0 0 1 29.5 12.5)"/>
</clipPath>
</defs>
</svg>
