<svg width="18" height="18" viewBox="0 0 18 18" fill="none" xmlns="http://www.w3.org/2000/svg">
<path d="M0.220222 16.72L3.74022 13.2C3.15355 12.4666 2.68911 11.66 2.34689 10.78C2.00467 9.89998 1.83356 8.97109 1.83356 7.99331C1.83356 6.57553 2.20022 5.25553 2.93356 4.03331C3.66689 2.81109 4.64467 1.83331 5.86689 1.09998C7.08911 0.366644 8.42133 -2.28882e-05 9.86355 -2.28882e-05C11.3058 -2.28882e-05 12.638 0.366644 13.8602 1.09998C15.0824 1.83331 16.0602 2.81109 16.7936 4.03331C17.5269 5.25553 17.8936 6.58776 17.8936 8.02998C17.8936 9.4722 17.5269 10.8044 16.7936 12.0266C16.0602 13.2489 15.0824 14.2266 13.8602 14.96C12.638 15.6933 11.2936 16.06 9.82689 16.06C8.898 16.06 7.99356 15.8889 7.11355 15.5466C6.23355 15.2044 5.42689 14.74 4.69355 14.1533L1.17356 17.6733C1.02689 17.82 0.868 17.8933 0.696888 17.8933C0.525778 17.8933 0.366888 17.82 0.220222 17.6733C0.073555 17.5266 0.000221252 17.3678 0.000221252 17.1966C0.000221252 17.0255 0.073555 16.8666 0.220222 16.72ZM9.82689 14.6666C11.0491 14.6666 12.1736 14.3733 13.2002 13.7866C14.2269 13.2 15.0336 12.3933 15.6202 11.3666C16.2069 10.34 16.5002 9.22776 16.5002 8.02998C16.5002 6.8322 16.2069 5.71998 15.6202 4.69331C15.0336 3.66664 14.2269 2.85998 13.2002 2.27331C12.1736 1.68664 11.0613 1.39331 9.86355 1.39331C8.66578 1.39331 7.55356 1.68664 6.52689 2.27331C5.50022 2.85998 4.69355 3.66664 4.10689 4.69331C3.52022 5.71998 3.22689 6.8322 3.22689 8.02998C3.22689 9.22776 3.52022 10.34 4.10689 11.3666C4.69355 12.3933 5.50022 13.2 6.52689 13.7866C7.55356 14.3733 8.65355 14.6666 9.82689 14.6666Z" fill="#5751E1"/>
</svg>
