<svg width="30" height="30" viewBox="0 0 30 30" fill="none" xmlns="http://www.w3.org/2000/svg">
<g clip-path="url(#clip0_1_8696)">
<g filter="url(#filter0_d_1_8696)">
<path d="M14.3374 4.80115C14.5132 4.62558 14.7515 4.52697 14.9999 4.52697C15.2484 4.52697 15.4866 4.62558 15.6624 4.80115L26.5249 15.6636C26.6114 15.7531 26.7149 15.8245 26.8293 15.8736C26.9437 15.9227 27.0668 15.9485 27.1912 15.9495C27.3157 15.9505 27.4392 15.9267 27.5544 15.8796C27.6695 15.8324 27.7742 15.7627 27.8622 15.6746C27.9502 15.5866 28.0197 15.4819 28.0668 15.3666C28.1139 15.2514 28.1375 15.1279 28.1364 15.0034C28.1353 14.879 28.1093 14.756 28.0602 14.6416C28.011 14.5273 27.9395 14.4238 27.8499 14.3374L16.9887 3.4749C16.7275 3.21373 16.4175 3.00656 16.0762 2.86522C15.735 2.72387 15.3693 2.65112 14.9999 2.65112C14.6306 2.65112 14.2649 2.72387 13.9236 2.86522C13.5824 3.00656 13.2723 3.21373 13.0112 3.4749L2.14868 14.3374C2.05918 14.4239 1.98781 14.5274 1.93873 14.6418C1.88965 14.7562 1.86385 14.8792 1.86282 15.0037C1.8618 15.1282 1.88558 15.2516 1.93277 15.3668C1.97997 15.482 2.04963 15.5867 2.13769 15.6746C2.22576 15.7626 2.33046 15.8322 2.4457 15.8793C2.56094 15.9264 2.6844 15.95 2.80888 15.9489C2.93336 15.9477 3.05636 15.9218 3.17072 15.8726C3.28507 15.8234 3.38849 15.752 3.47493 15.6624L14.3374 4.80115Z" fill="#5751E1"/>
</g>
<g filter="url(#filter1_d_1_8696)">
<path d="M15 6.79004L25.1987 16.9888C25.2362 17.0263 25.2738 17.0613 25.3125 17.0963V24.8438C25.3125 26.1375 24.2625 27.1875 22.9688 27.1875H18.75C18.5014 27.1875 18.2629 27.0888 18.0871 26.913C17.9113 26.7371 17.8125 26.4987 17.8125 26.25V20.625C17.8125 20.3764 17.7137 20.1379 17.5379 19.9621C17.3621 19.7863 17.1236 19.6875 16.875 19.6875H13.125C12.8764 19.6875 12.6379 19.7863 12.4621 19.9621C12.2863 20.1379 12.1875 20.3764 12.1875 20.625V26.25C12.1875 26.4987 12.0887 26.7371 11.9129 26.913C11.7371 27.0888 11.4986 27.1875 11.25 27.1875H7.03125C6.40965 27.1875 5.81351 26.9406 5.37397 26.5011C4.93443 26.0615 4.6875 25.4654 4.6875 24.8438V17.0963C4.72639 17.0615 4.76432 17.0257 4.80125 16.9888L15 6.79004Z" fill="#5751E1"/>
</g>
</g>
<defs>
<filter id="filter0_d_1_8696" x="-0.137207" y="1.65112" width="30.2734" height="17.2983" filterUnits="userSpaceOnUse" color-interpolation-filters="sRGB">
<feFlood flood-opacity="0" result="BackgroundImageFix"/>
<feColorMatrix in="SourceAlpha" type="matrix" values="0 0 0 0 0 0 0 0 0 0 0 0 0 0 0 0 0 0 127 0" result="hardAlpha"/>
<feOffset dy="1"/>
<feGaussianBlur stdDeviation="1"/>
<feComposite in2="hardAlpha" operator="out"/>
<feColorMatrix type="matrix" values="0 0 0 0 0 0 0 0 0 0 0 0 0 0 0 0 0 0 0.25 0"/>
<feBlend mode="normal" in2="BackgroundImageFix" result="effect1_dropShadow_1_8696"/>
<feBlend mode="normal" in="SourceGraphic" in2="effect1_dropShadow_1_8696" result="shape"/>
</filter>
<filter id="filter1_d_1_8696" x="2.6875" y="5.79004" width="24.625" height="24.3975" filterUnits="userSpaceOnUse" color-interpolation-filters="sRGB">
<feFlood flood-opacity="0" result="BackgroundImageFix"/>
<feColorMatrix in="SourceAlpha" type="matrix" values="0 0 0 0 0 0 0 0 0 0 0 0 0 0 0 0 0 0 127 0" result="hardAlpha"/>
<feOffset dy="1"/>
<feGaussianBlur stdDeviation="1"/>
<feComposite in2="hardAlpha" operator="out"/>
<feColorMatrix type="matrix" values="0 0 0 0 0 0 0 0 0 0 0 0 0 0 0 0 0 0 0.25 0"/>
<feBlend mode="normal" in2="BackgroundImageFix" result="effect1_dropShadow_1_8696"/>
<feBlend mode="normal" in="SourceGraphic" in2="effect1_dropShadow_1_8696" result="shape"/>
</filter>
<clipPath id="clip0_1_8696">
<rect width="30" height="30" fill="white"/>
</clipPath>
</defs>
</svg>
