<svg width="656" height="641" viewBox="0 0 656 641" fill="none" xmlns="http://www.w3.org/2000/svg">
<path d="M491.698 499.006C401.288 541.106 254.711 541.119 164.302 499.006C73.8916 456.892 73.9047 388.638 164.302 346.537C254.698 304.436 401.288 304.436 491.698 346.537C582.108 388.638 582.095 456.905 491.698 499.006Z" fill="#F5F5F5" fill-opacity="0.37"/>
<path d="M164.617 467.891C147.966 467.891 134.467 461.606 134.467 453.854C134.467 446.101 147.966 439.816 164.617 439.816C181.268 439.816 194.767 446.101 194.767 453.854C194.767 461.606 181.268 467.891 164.617 467.891Z" fill="#EBEBEB" fill-opacity="0.5"/>
<path d="M498.56 455.866L487.893 449.854C481.938 445.105 477.405 438.873 474.773 431.816C471.48 422.945 471.939 416.201 474.301 412.817C477.2 408.65 484.718 409.381 485.02 418.15C485.649 435.431 490.806 447.418 498.56 455.866Z" fill="#407BFF"/>
<path opacity="0.2" d="M498.56 455.866L487.893 449.854C481.938 445.105 477.405 438.873 474.773 431.816C471.48 422.945 471.939 416.201 474.301 412.817C477.2 408.65 484.718 409.381 485.02 418.15C485.649 435.431 490.806 447.418 498.56 455.866Z" fill="black"/>
<path d="M498.56 456.507C498.698 456.506 498.833 456.461 498.944 456.38C499.056 456.298 499.138 456.185 499.179 456.055C499.219 455.925 499.217 455.786 499.172 455.658C499.127 455.529 499.041 455.418 498.927 455.341C474.261 438.675 479.037 415.432 479.089 415.201C479.108 415.117 479.109 415.03 479.092 414.946C479.076 414.861 479.043 414.781 478.995 414.709C478.947 414.636 478.884 414.574 478.812 414.526C478.739 414.477 478.657 414.443 478.571 414.426C478.485 414.408 478.396 414.407 478.31 414.423C478.223 414.439 478.141 414.471 478.067 414.518C477.993 414.565 477.93 414.626 477.88 414.697C477.83 414.768 477.796 414.848 477.777 414.932C477.777 415.176 472.739 439.213 498.14 456.392C498.263 456.474 498.41 456.515 498.56 456.507Z" fill="white"/>
<path d="M519.932 467.93C519.932 467.93 523.645 464.981 522.753 460.982C521.861 456.982 519.46 454.11 523.566 448.956C527.673 443.803 528.814 436.931 523.908 433.213C520.168 430.329 514.33 434.406 512.231 426.803C510.683 421.24 511.207 408.92 503.952 404.817C496.697 400.715 492.144 406.894 493.285 415.253C494.283 422.727 495.7 429.919 494.597 431.919C492.472 435.765 488.838 435.239 489.008 442.264C489.153 448.803 495.49 454.213 495.49 454.213L519.932 467.93Z" fill="#407BFF"/>
<path d="M507.743 461.661C507.904 461.659 508.058 461.602 508.179 461.498C508.299 461.394 508.377 461.252 508.399 461.097C510.276 445.905 505.775 419.675 502.102 411.881C502.071 411.794 502.021 411.715 501.957 411.649C501.892 411.583 501.813 411.531 501.726 411.497C501.639 411.463 501.546 411.448 501.452 411.452C501.358 411.456 501.267 411.48 501.183 411.522C501.105 411.556 501.035 411.606 500.976 411.667C500.918 411.729 500.873 411.801 500.843 411.88C500.814 411.959 500.801 412.043 500.805 412.127C500.81 412.21 500.831 412.293 500.869 412.368C504.503 420.06 508.846 446.367 507.048 460.892C507.03 461.06 507.08 461.228 507.188 461.36C507.296 461.493 507.453 461.578 507.625 461.597L507.743 461.661Z" fill="white"/>
<path d="M508.098 449.828C508.198 449.833 508.298 449.811 508.386 449.764C512.939 447.597 515.826 439.867 515.944 439.508C515.976 439.428 515.991 439.343 515.989 439.257C515.987 439.172 515.967 439.087 515.931 439.009C515.895 438.931 515.843 438.861 515.779 438.803C515.715 438.744 515.639 438.699 515.556 438.67C515.474 438.641 515.386 438.628 515.299 438.633C515.211 438.637 515.125 438.659 515.046 438.697C514.968 438.734 514.897 438.787 514.839 438.851C514.782 438.916 514.738 438.991 514.71 439.072C514.71 439.149 511.89 446.636 507.809 448.572C507.675 448.635 507.567 448.741 507.503 448.872C507.439 449.003 507.422 449.152 507.456 449.293C507.49 449.435 507.571 449.561 507.688 449.651C507.805 449.742 507.949 449.79 508.098 449.79V449.828Z" fill="white"/>
<path d="M508.177 454.956C508.308 454.956 508.436 454.917 508.544 454.844C508.652 454.77 508.734 454.666 508.78 454.546C508.845 454.39 508.845 454.214 508.778 454.058C508.712 453.902 508.585 453.778 508.426 453.713C500.764 450.713 495.988 441.803 495.936 441.7C495.856 441.549 495.717 441.435 495.551 441.383C495.385 441.332 495.205 441.347 495.05 441.425C494.895 441.503 494.778 441.638 494.726 441.8C494.673 441.963 494.688 442.139 494.768 442.29C494.978 442.675 499.819 451.726 507.888 454.905C507.978 454.947 508.077 454.964 508.177 454.956Z" fill="white"/>
<path d="M240.358 385.985C240.358 385.985 246.092 376.908 246.656 367.049C247.22 357.191 245.003 353.088 241.959 351.909C238.915 350.73 238.679 354.358 237.117 356.499C235.556 358.639 232.368 357.422 231.187 350.742C230.006 344.063 225.703 332.794 216.755 330.602C206.915 328.218 212.189 339.499 214.669 343.896C217.149 348.294 219.064 354.294 217.437 355.922C215.811 357.55 213.278 354.537 210.877 357.332C207.952 360.704 217.044 372.844 222.266 375.78L240.358 385.985Z" fill="#407BFF"/>
<path d="M232.499 382.177C232.585 382.174 232.67 382.154 232.748 382.118C232.827 382.083 232.897 382.033 232.955 381.971C233.014 381.909 233.059 381.837 233.089 381.758C233.119 381.679 233.132 381.595 233.129 381.51C232.24 365.651 227.179 350.285 218.434 336.897C218.385 336.827 218.321 336.768 218.248 336.723C218.174 336.678 218.092 336.648 218.006 336.634C217.92 336.621 217.833 336.625 217.748 336.646C217.664 336.667 217.585 336.704 217.516 336.756C217.379 336.856 217.286 337.004 217.26 337.169C217.233 337.335 217.273 337.504 217.372 337.64C225.96 350.833 230.93 365.962 231.804 381.574C231.809 381.659 231.831 381.741 231.868 381.817C231.906 381.893 231.959 381.961 232.023 382.017C232.088 382.073 232.163 382.116 232.245 382.143C232.327 382.171 232.413 382.182 232.499 382.177Z" fill="white"/>
<path d="M231.751 374.6C231.861 374.599 231.969 374.573 232.066 374.524C235.74 372.536 237.773 366.639 237.852 366.396C237.881 366.316 237.893 366.231 237.889 366.146C237.884 366.062 237.862 365.979 237.824 365.902C237.786 365.826 237.733 365.758 237.668 365.702C237.603 365.646 237.527 365.603 237.445 365.575C237.28 365.523 237.1 365.536 236.945 365.613C236.79 365.69 236.673 365.824 236.619 365.985C236.619 365.985 234.651 371.665 231.371 373.395C231.222 373.481 231.113 373.62 231.067 373.782C231.02 373.945 231.04 374.118 231.122 374.267C231.181 374.377 231.272 374.468 231.384 374.527C231.497 374.587 231.624 374.612 231.751 374.6Z" fill="white"/>
<path d="M231.108 370.716C231.254 370.714 231.394 370.666 231.508 370.578C231.622 370.489 231.703 370.367 231.738 370.229C231.76 370.148 231.764 370.064 231.752 369.981C231.74 369.898 231.711 369.819 231.667 369.747C231.623 369.676 231.565 369.613 231.496 369.564C231.427 369.515 231.349 369.479 231.266 369.46C221.793 367.114 218.513 362.268 218.487 362.216C218.44 362.145 218.38 362.083 218.309 362.034C218.238 361.985 218.158 361.951 218.073 361.932C217.988 361.914 217.901 361.912 217.815 361.927C217.73 361.941 217.648 361.972 217.575 362.018C217.502 362.063 217.438 362.122 217.389 362.192C217.339 362.261 217.303 362.339 217.284 362.422C217.266 362.505 217.264 362.59 217.279 362.674C217.293 362.757 217.325 362.837 217.372 362.909C217.516 363.127 220.927 368.216 230.938 370.703L231.108 370.716Z" fill="white"/>
<path d="M383.104 366.062C383.104 366.062 395.686 363.062 396.342 340.038C397.037 315.192 393.259 286.194 408.15 283.848C423.041 281.502 431.307 299.232 431.123 319.936C430.952 338.063 423.474 377.421 383.156 385.138L383.104 366.062Z" fill="#407BFF"/>
<path opacity="0.2" d="M383.104 366.062C383.104 366.062 395.686 363.062 396.342 340.038C397.037 315.192 393.259 286.194 408.15 283.848C423.041 281.502 431.307 299.232 431.123 319.936C430.952 338.063 423.474 377.421 383.156 385.138L383.104 366.062Z" fill="black"/>
<path d="M383.104 382.779H383.222C392.288 381.164 399.674 376.28 405.172 368.28C421.467 344.525 416.337 300.167 414.644 292.424C414.606 292.259 414.505 292.115 414.36 292.022C414.216 291.928 414.04 291.894 413.87 291.924C413.7 291.964 413.553 292.066 413.457 292.209C413.362 292.352 413.327 292.525 413.358 292.693C415.025 300.385 420.128 344.178 404.083 367.562C401.747 371.188 398.666 374.301 395.034 376.702C391.402 379.103 387.299 380.74 382.986 381.51C382.9 381.526 382.818 381.557 382.746 381.604C382.673 381.65 382.61 381.711 382.561 381.781C382.512 381.851 382.478 381.931 382.461 382.014C382.444 382.097 382.444 382.183 382.461 382.267C382.489 382.413 382.569 382.544 382.686 382.638C382.804 382.732 382.952 382.782 383.104 382.779Z" fill="white"/>
<path d="M383.104 441.867C396.106 443.585 417.216 443.559 429.404 434.175C441.593 424.791 439.048 416.714 434.364 413.342C429.68 409.971 425.613 406.125 433.668 398.638C441.724 391.151 454.66 379.126 458.859 361.088C463.057 343.05 460.984 331.769 452.745 328.012C444.755 324.371 442.642 330.166 437.749 342.114C432.855 354.063 421.847 343.819 412.427 347.55C403.007 351.281 403.387 358.665 402.797 365.011C402.207 371.357 399.097 373.113 393.757 373.113C388.417 373.113 383.104 376.113 383.104 382.087V441.867Z" fill="#407BFF"/>
<path d="M383.104 420.919C383.16 420.931 383.218 420.931 383.274 420.919C383.839 420.765 397.287 416.945 416.875 399.369C437.736 380.651 447.576 352.576 447.681 352.294C447.731 352.132 447.715 351.958 447.637 351.807C447.559 351.657 447.424 351.542 447.261 351.486C447.097 351.433 446.919 351.445 446.764 351.519C446.609 351.593 446.491 351.724 446.434 351.883C446.342 352.165 436.594 379.933 415.983 398.42C396.67 415.765 383.065 419.65 382.92 419.688C382.837 419.712 382.76 419.751 382.693 419.804C382.626 419.857 382.57 419.922 382.529 419.995C382.487 420.069 382.461 420.15 382.452 420.234C382.442 420.318 382.45 420.402 382.474 420.483C382.517 420.613 382.601 420.725 382.715 420.804C382.828 420.882 382.965 420.923 383.104 420.919Z" fill="white"/>
<path d="M411.404 403.83C411.536 403.832 411.665 403.793 411.773 403.72C411.881 403.646 411.963 403.541 412.007 403.42C416.219 392.856 417.176 370.254 417.255 369.293C417.259 369.124 417.195 368.96 417.078 368.835C416.96 368.711 416.798 368.636 416.625 368.626C416.454 368.629 416.29 368.693 416.164 368.806C416.038 368.92 415.959 369.075 415.943 369.242C415.943 369.472 414.959 392.587 410.826 402.958C410.795 403.037 410.78 403.122 410.782 403.207C410.784 403.291 410.803 403.375 410.838 403.453C410.874 403.53 410.925 403.6 410.988 403.658C411.051 403.716 411.126 403.762 411.207 403.791C411.27 403.814 411.337 403.827 411.404 403.83Z" fill="white"/>
<path d="M411.508 419.022C412.718 419.031 413.927 418.971 415.129 418.842C415.216 418.832 415.299 418.805 415.374 418.764C415.45 418.722 415.517 418.667 415.57 418.6C415.624 418.533 415.663 418.457 415.687 418.375C415.71 418.294 415.717 418.208 415.707 418.124C415.696 418.04 415.669 417.959 415.627 417.885C415.584 417.811 415.527 417.746 415.459 417.693C415.391 417.641 415.313 417.602 415.229 417.579C415.145 417.557 415.058 417.55 414.972 417.56C414.854 417.56 402.639 418.919 397.037 413.342C396.979 413.275 396.907 413.22 396.826 413.181C396.744 413.142 396.656 413.12 396.566 413.116C396.475 413.112 396.385 413.126 396.301 413.158C396.216 413.189 396.14 413.238 396.075 413.3C396.011 413.362 395.96 413.436 395.927 413.518C395.893 413.6 395.877 413.688 395.88 413.776C395.883 413.864 395.904 413.951 395.943 414.031C395.982 414.111 396.037 414.182 396.105 414.24C400.16 418.329 407.231 419.022 411.508 419.022Z" fill="white"/>
<path d="M370.141 459.02L246.813 389.433C246.541 389.34 246.306 389.166 246.139 388.937C245.973 388.707 245.883 388.432 245.883 388.151C245.883 387.87 245.973 387.595 246.139 387.365C246.306 387.136 246.541 386.962 246.813 386.869L258.214 380.459C258.92 380.112 259.7 379.931 260.49 379.931C261.281 379.931 262.06 380.112 262.767 380.459L386.134 449.982C386.406 450.075 386.641 450.249 386.808 450.478C386.974 450.708 387.063 450.982 387.063 451.264C387.063 451.545 386.974 451.82 386.808 452.049C386.641 452.279 386.406 452.452 386.134 452.546L374.693 458.956C373.992 459.313 373.215 459.505 372.425 459.516C371.634 459.527 370.852 459.357 370.141 459.02Z" fill="#E0E0E0"/>
<path d="M250.198 120.764L361.403 183.505C363.056 184.56 364.432 185.979 365.419 187.65C366.406 189.32 366.976 191.194 367.084 193.12V450.892C367.084 454.43 364.539 455.866 361.403 454.097L250.198 391.356C248.543 390.304 247.165 388.885 246.178 387.214C245.191 385.543 244.622 383.668 244.517 381.741V123.969C244.517 120.431 247.049 118.995 250.198 120.764Z" fill="#455A64"/>
<path d="M361.403 183.505L250.198 120.764C247.39 119.175 245.068 120.162 244.595 122.918C244.858 121.185 245.492 119.526 246.458 118.05C247.424 116.574 248.698 115.314 250.198 114.354L254.816 111.79C256.576 110.917 258.523 110.463 260.497 110.463C262.471 110.463 264.417 110.917 266.178 111.79L377.396 174.48C379.071 175.506 380.452 176.931 381.411 178.621L365.417 187.595C364.459 185.918 363.077 184.51 361.403 183.505Z" fill="#37474F"/>
<path d="M383.104 441.867C382.996 443.793 382.425 445.667 381.438 447.337C380.451 449.008 379.076 450.428 377.423 451.482L372.791 454.046C371.188 454.829 369.434 455.273 367.643 455.348C365.853 455.423 364.066 455.128 362.4 454.482C365.024 455.482 367.11 454.007 367.11 450.841V193.12C367.045 191.186 366.471 189.301 365.444 187.646L381.437 178.672C382.45 180.314 383.023 182.179 383.104 184.095V441.867Z" fill="#263238"/>
<path d="M358.346 217.85L253.215 158.558C251.326 157.506 249.804 158.365 249.804 160.481V351.268C249.867 352.424 250.209 353.55 250.802 354.552C251.395 355.555 252.222 356.406 253.215 357.037L358.307 416.329C360.196 417.393 361.718 416.535 361.718 414.406V223.619C361.658 222.467 361.322 221.344 360.736 220.342C360.15 219.34 359.332 218.486 358.346 217.85Z" fill="white"/>
<path d="M305.8 161.904C306.38 162.276 306.863 162.776 307.21 163.364C307.556 163.952 307.756 164.611 307.794 165.288C307.794 166.57 306.902 167.044 305.8 166.416C305.218 166.046 304.733 165.547 304.387 164.958C304.04 164.37 303.841 163.71 303.806 163.032C303.806 161.788 304.698 161.288 305.8 161.904Z" fill="#37474F"/>
<path d="M305.8 395.805C308.094 397.271 310.002 399.244 311.369 401.565C312.737 403.886 313.526 406.489 313.672 409.163C313.672 414.073 310.143 416.073 305.8 413.612C303.508 412.145 301.6 410.171 300.233 407.851C298.865 405.53 298.076 402.927 297.928 400.253C297.902 395.343 301.445 393.343 305.8 395.805Z" fill="#37474F"/>
<path d="M324.68 181.749C325.833 182.497 326.79 183.499 327.473 184.675C328.157 185.851 328.548 187.167 328.616 188.518C328.616 191.005 326.831 192.018 324.68 190.774C323.514 190.033 322.545 189.034 321.849 187.858C321.154 186.682 320.753 185.362 320.678 184.005C320.678 181.518 322.462 180.505 324.68 181.749Z" fill="#37474F"/>
<path d="M314.879 180.903C314.879 182.569 313.567 183.198 312.032 182.313L285.792 167.48C284.98 166.984 284.298 166.308 283.803 165.506C283.309 164.704 283.015 163.799 282.945 162.865C282.945 161.211 284.257 160.583 285.792 161.468L312.032 176.3C312.843 176.795 313.524 177.47 314.019 178.269C314.513 179.069 314.808 179.971 314.879 180.903Z" fill="#37474F"/>
<path d="M374.234 226.106C373.303 226.699 372.528 227.498 371.972 228.437C371.416 229.377 371.094 230.432 371.033 231.516C371.033 233.516 372.463 234.324 374.234 233.324C375.162 232.729 375.934 231.93 376.488 230.99C377.042 230.05 377.362 228.997 377.422 227.914C377.422 225.927 375.992 225.119 374.234 226.106Z" fill="#37474F"/>
<path d="M374.234 250.182C373.303 250.775 372.528 251.573 371.972 252.513C371.416 253.453 371.094 254.508 371.033 255.592C371.033 257.579 372.463 258.387 374.234 257.4C375.162 256.805 375.934 256.006 376.488 255.066C377.042 254.126 377.362 253.072 377.422 251.99C377.422 249.99 375.992 249.182 374.234 250.182Z" fill="#37474F"/>
<path d="M375.231 226.593C374.3 227.186 373.525 227.985 372.969 228.925C372.413 229.865 372.091 230.919 372.03 232.003C372.03 233.991 373.46 234.798 375.231 233.811C376.162 233.219 376.937 232.42 377.494 231.48C378.05 230.54 378.372 229.485 378.433 228.401C378.419 226.401 376.989 225.632 375.231 226.593Z" fill="#455A64"/>
<path d="M375.231 250.657C374.299 251.25 373.522 252.051 372.966 252.993C372.41 253.936 372.089 254.993 372.03 256.079C372.03 258.067 373.46 258.874 375.231 257.874C376.165 257.284 376.941 256.486 377.498 255.545C378.054 254.605 378.375 253.549 378.433 252.464C378.419 250.477 376.989 249.669 375.231 250.657Z" fill="#455A64"/>
<path d="M228.523 166.519C228.523 164.391 230.045 163.532 231.935 164.596L244.517 171.685L337.026 223.888C338.019 224.519 338.846 225.371 339.439 226.373C340.032 227.376 340.374 228.501 340.437 229.657V420.393C340.437 422.522 338.915 423.38 337.026 422.316L244.477 370.101L231.935 363.024C230.941 362.393 230.114 361.542 229.521 360.539C228.928 359.536 228.586 358.411 228.523 357.255V166.519Z" fill="white"/>
<path d="M227.211 166.519C227.129 165.876 227.242 165.224 227.537 164.643C227.832 164.063 228.295 163.581 228.87 163.256C229.444 162.932 230.103 162.78 230.765 162.82C231.427 162.86 232.062 163.09 232.591 163.481L244.595 170.262L337.682 222.824C338.88 223.564 339.877 224.577 340.585 225.776C341.294 226.975 341.693 228.325 341.749 229.709V420.393C341.802 421.034 341.676 421.676 341.385 422.251C341.094 422.827 340.648 423.315 340.096 423.663C339.626 423.929 339.091 424.067 338.548 424.06C337.779 424.037 337.029 423.82 336.37 423.432L243.218 370.87L231.239 364.114C230.048 363.367 229.056 362.353 228.349 361.155C227.641 359.957 227.238 358.611 227.172 357.229L227.211 166.519ZM244.569 368.678L245.645 369.293L337.629 421.188C337.784 421.304 337.963 421.385 338.154 421.425C338.344 421.465 338.542 421.463 338.731 421.419C338.902 421.316 339.073 420.958 339.073 420.368V229.657C339.005 228.727 338.721 227.823 338.244 227.015C337.767 226.206 337.108 225.514 336.317 224.991L244.425 173.07L231.305 165.647C231.15 165.531 230.971 165.45 230.78 165.41C230.59 165.37 230.393 165.372 230.203 165.416C230.032 165.519 229.862 165.878 229.862 166.468V357.255C229.93 358.186 230.213 359.089 230.69 359.898C231.167 360.706 231.826 361.398 232.617 361.921L244.595 368.678H244.569Z" fill="#407BFF"/>
<path d="M284.48 210.838C272.672 204.197 263.16 209.556 263.16 222.875C263.16 236.195 272.712 252.361 284.48 258.951C296.249 265.54 305.8 260.233 305.8 246.926C305.8 233.619 296.249 217.491 284.48 210.838Z" fill="#407BFF"/>
<path d="M284.48 221.299C280.662 219.145 277.566 220.889 277.566 225.145C277.696 227.49 278.389 229.771 279.591 231.805C280.792 233.839 282.467 235.567 284.48 236.849C288.298 239.003 291.395 237.26 291.395 233.003C291.265 230.659 290.571 228.377 289.37 226.343C288.168 224.31 286.493 222.581 284.48 221.299Z" fill="#407BFF"/>
<path d="M271.006 244.272C271.006 237.195 276.084 234.324 282.368 237.862L286.304 240.08C292.575 243.618 297.666 252.233 297.666 259.31V261.22C294.032 262.387 289.466 261.759 284.546 258.951C279.096 255.666 274.487 251.206 271.072 245.913L271.006 244.272Z" fill="#407BFF"/>
<path opacity="0.7" d="M284.48 221.299C280.662 219.145 277.566 220.889 277.566 225.145C277.696 227.49 278.389 229.771 279.591 231.805C280.792 233.839 282.467 235.567 284.48 236.849C288.298 239.003 291.395 237.26 291.395 233.003C291.265 230.659 290.571 228.377 289.37 226.343C288.168 224.31 286.493 222.581 284.48 221.299Z" fill="white"/>
<path opacity="0.7" d="M271.006 244.272C271.006 237.195 276.084 234.324 282.368 237.862L286.304 240.08C292.575 243.618 297.666 252.233 297.666 259.31V261.22C294.032 262.387 289.466 261.759 284.546 258.951C279.096 255.666 274.487 251.206 271.072 245.913L271.006 244.272Z" fill="white"/>
<path d="M325.73 288.245L298.296 272.771C296.984 272.066 296.026 272.63 296.026 274.053V274.938C296.068 275.708 296.295 276.458 296.689 277.126C297.084 277.795 297.634 278.363 298.296 278.784L325.73 294.257C326.976 294.962 328 294.386 328 292.975V292.091C327.957 291.321 327.729 290.571 327.335 289.903C326.941 289.235 326.391 288.667 325.73 288.245Z" fill="#407BFF"/>
<path opacity="0.1" d="M325.73 288.245L298.296 272.771C296.984 272.066 296.026 272.63 296.026 274.053V274.938C296.068 275.708 296.295 276.458 296.689 277.126C297.084 277.795 297.634 278.363 298.296 278.784L325.73 294.257C326.976 294.962 328 294.386 328 292.975V292.091C327.957 291.321 327.729 290.571 327.335 289.903C326.941 289.235 326.391 288.667 325.73 288.245Z" fill="black"/>
<path d="M326.858 306.923L243.861 260.105C243.244 259.746 242.733 260.028 242.733 260.746V270.207C242.756 270.591 242.87 270.964 243.065 271.298C243.261 271.632 243.534 271.917 243.861 272.13L326.858 318.949C327.488 319.308 328 319.013 328 318.308V308.846C327.977 308.461 327.862 308.086 327.664 307.752C327.465 307.418 327.189 307.134 326.858 306.923Z" fill="#407BFF"/>
<path opacity="0.2" d="M326.858 306.923L243.861 260.105C243.244 259.746 242.733 260.028 242.733 260.746V270.207C242.756 270.591 242.87 270.964 243.065 271.298C243.261 271.632 243.534 271.917 243.861 272.13L326.858 318.949C327.488 319.308 328 319.013 328 318.308V308.846C327.977 308.461 327.862 308.086 327.664 307.752C327.465 307.418 327.189 307.134 326.858 306.923Z" fill="white"/>
<path d="M325.73 330.333L298.296 314.859C296.984 314.154 296.026 314.731 296.026 316.141V317.026C296.067 317.796 296.293 318.547 296.688 319.215C297.082 319.884 297.633 320.451 298.296 320.872L325.73 336.345C326.976 337.063 328 336.486 328 335.063V334.179C327.955 333.409 327.726 332.66 327.332 331.992C326.938 331.324 326.389 330.756 325.73 330.333Z" fill="#407BFF"/>
<path opacity="0.1" d="M325.73 330.333L298.296 314.859C296.984 314.154 296.026 314.731 296.026 316.141V317.026C296.067 317.796 296.293 318.547 296.688 319.215C297.082 319.884 297.633 320.451 298.296 320.872L325.73 336.345C326.976 337.063 328 336.486 328 335.063V334.179C327.955 333.409 327.726 332.66 327.332 331.992C326.938 331.324 326.389 330.756 325.73 330.333Z" fill="black"/>
<path d="M326.858 349.011L243.861 302.193C243.244 301.834 242.733 302.129 242.733 302.834V312.295C242.756 312.679 242.87 313.052 243.065 313.386C243.261 313.72 243.534 314.005 243.861 314.218L326.858 361.037C327.488 361.396 328 361.114 328 360.396V350.934C327.977 350.549 327.862 350.174 327.664 349.84C327.465 349.506 327.189 349.222 326.858 349.011Z" fill="#407BFF"/>
<path opacity="0.2" d="M326.858 349.011L243.861 302.193C243.244 301.834 242.733 302.129 242.733 302.834V312.295C242.756 312.679 242.87 313.052 243.065 313.386C243.261 313.72 243.534 314.005 243.861 314.218L326.858 361.037C327.488 361.396 328 361.114 328 360.396V350.934C327.977 350.549 327.862 350.174 327.664 349.84C327.465 349.506 327.189 349.222 326.858 349.011Z" fill="white"/>
<path d="M293.756 354.383L260.956 335.909C259.644 335.192 258.673 335.768 258.673 337.191V347.088C258.716 347.86 258.945 348.611 259.342 349.279C259.739 349.948 260.292 350.515 260.956 350.934L293.756 369.421C295.068 370.126 296.026 369.549 296.026 368.139V358.229C295.98 357.46 295.751 356.711 295.357 356.043C294.963 355.376 294.415 354.807 293.756 354.383Z" fill="#407BFF"/>
<path opacity="0.1" d="M293.756 354.383L260.956 335.909C259.644 335.192 258.673 335.768 258.673 337.191V347.088C258.716 347.86 258.945 348.611 259.342 349.279C259.739 349.948 260.292 350.515 260.956 350.934L293.756 369.421C295.068 370.126 296.026 369.549 296.026 368.139V358.229C295.98 357.46 295.751 356.711 295.357 356.043C294.963 355.376 294.415 354.807 293.756 354.383Z" fill="black"/>
<path d="M216.086 312.616C216.086 312.616 232.198 290.899 233.142 288.258C233.89 286.309 233.142 283.412 232.906 282.066C232.67 280.72 232.46 277.72 232.224 276.938C231.83 275.476 233.759 275.771 234.848 277.104C235.937 278.438 236.304 281.104 236.868 281.54C237.433 281.976 241.723 275.861 243.966 273.04C246.21 270.22 247.614 268.502 248.991 269.553C249.975 270.31 249.241 271.951 247.614 274.361C246.664 275.659 245.788 277.007 244.99 278.399C244.74 278.925 246.079 278.963 246.8 280.053C247.364 280.899 246.8 282.271 247.587 282.925C248.072 283.285 248.404 283.807 248.52 284.391C248.636 284.974 248.528 285.58 248.217 286.091C246.757 288.332 244.873 290.281 242.667 291.834C240.253 293.463 239.283 294.039 237.852 296.257C236.422 298.475 223.591 321.128 222.725 322.487C221.859 323.846 220.193 326.615 217.661 326.692C215.129 326.769 194.399 309.334 193.336 308.462C189.925 305.68 188.836 305.283 188.259 307.783C188.059 308.671 187.911 309.57 187.813 310.475C187.406 313.654 185.189 325.013 185.189 325.013C185.189 325.013 174.693 329.974 166.073 327.577C157.453 325.179 154.54 321.602 154.54 321.602L158.857 314.731C157.689 311.898 152.297 300.411 150.552 292.373L177.579 288.104C178.13 287.988 179.022 287.771 180.203 287.476C181.686 287.091 185.451 285.822 188.298 288.258C197.587 296.168 216.06 312.616 216.06 312.616" fill="#FFA8A7"/>
<path d="M162.504 445.867L167.345 452.443C165.145 453.447 162.741 453.951 160.313 453.918C155.97 454.072 154.776 452.636 154.619 452.354C153.884 450.815 155.026 448.046 155.34 445.662L162.504 445.867Z" fill="#37474F"/>
<path d="M167.07 449.29C167.07 449.29 172.948 448.918 177.002 448.431C181.056 447.944 184.27 449.866 183.326 451.495C182.381 453.123 180.137 454.482 176.647 455.623C173.669 456.61 170.087 457.315 166.991 458.187C163.895 459.058 161.743 460.199 159.946 459.584C157.938 458.905 157.072 458.123 157.243 456.687C157.681 454.644 158.224 452.625 158.87 450.636L167.07 449.29Z" fill="#37474F"/>
<path d="M154.619 439.264C154.619 439.264 155.353 445.239 155.406 446.521C155.458 447.803 161.375 448.213 162.504 445.867L162.688 438.559L154.619 439.264Z" fill="#F28F8F"/>
<path d="M160.576 442.931L158.463 452.007C158.463 452.007 158.266 453.11 163.095 453.815C167.923 454.52 175.506 451.341 176.805 450.7C178.104 450.059 178.248 448.764 173.499 449.02C168.749 449.277 167.07 449.29 167.07 449.29L168.618 445.277L160.576 442.931Z" fill="#FFA8A7"/>
<path d="M150.63 292.296L147.285 291.386C147.285 291.386 140.292 313.013 139.518 315.103C138.743 317.192 137.864 319.397 139.373 321.974C141.171 325.038 150.63 337.358 150.63 337.358L156.639 331.615L149.817 319.41L155.852 307.488L150.63 292.296Z" fill="#F28F8F"/>
<path d="M184.992 264.207C185.776 262.769 186.175 261.159 186.149 259.529C186.124 257.899 185.676 256.302 184.848 254.887C181.515 248.849 174.089 245.913 165.246 247.028C161.153 247.554 156.325 250.874 153.688 255.836C150.775 261.336 150.5 272.412 149.752 276.604L184.992 264.207Z" fill="#37474F"/>
<path d="M185.228 266.579C185.228 266.579 187.327 270.489 186.96 270.848C186.416 271.159 185.821 271.376 185.202 271.489L185.228 266.579Z" fill="#FFA8A7"/>
<path d="M178.851 254.22C181.134 255.669 185.07 258.336 185.241 267.117C185.424 276.091 184.112 279.053 182.748 280.091C181.829 280.796 176.437 280.437 174.128 279.912C171.819 279.386 165.167 276.168 162.766 271.284C159.945 265.54 160.522 257.182 164.708 254.618C166.838 253.387 169.253 252.705 171.727 252.635C174.201 252.566 176.652 253.111 178.851 254.22Z" fill="#FFA8A7"/>
<path d="M154.619 321.551C150.578 327.705 146.747 333.089 145.908 340.038C144.176 354.64 149.844 371.331 151.064 382.139C148.769 385.213 147.446 388.876 147.259 392.677C147.259 397.151 154.619 439.265 154.619 439.265C154.619 439.265 159.972 440.854 162.688 438.559L167.739 361.088L165.115 351.653L154.619 321.551Z" fill="#407BFF"/>
<path opacity="0.2" d="M154.619 321.551C150.578 327.705 146.747 333.089 145.908 340.038C144.176 354.64 149.844 371.331 151.064 382.139C148.769 385.213 147.446 388.876 147.259 392.677C147.259 397.151 154.619 439.265 154.619 439.265C154.619 439.265 159.972 440.854 162.688 438.559L167.739 361.088L165.115 351.653L154.619 321.551Z" fill="black"/>
<path d="M167.739 361.088L165.115 351.652C160.091 350.36 155.245 348.479 150.683 346.05C150.683 346.05 153.412 350.909 161.258 353.575L165.312 365.69L165.653 393.446L167.739 361.088Z" fill="#407BFF"/>
<path opacity="0.3" d="M167.739 361.088L165.115 351.652C160.091 350.36 155.245 348.479 150.683 346.05C150.683 346.05 153.412 350.909 161.258 353.575L165.312 365.69L165.653 393.446L167.739 361.088Z" fill="black"/>
<path d="M154.619 321.551C152.454 325.013 147.285 330.91 148.387 336.589C149.699 343.461 153.503 348.294 165.075 351.653L175.939 390.113C175.939 390.113 170.284 395.241 168.552 400.202C166.82 405.163 160.575 442.957 160.575 442.957C160.575 442.957 162.517 446.046 168.618 445.303C168.618 445.303 189.885 397.869 191.381 394.779C193.196 391.65 193.832 387.999 193.178 384.459C192.509 379.485 185.306 325.038 185.306 325.038L154.619 321.551Z" fill="#407BFF"/>
<path opacity="0.2" d="M154.619 321.551C152.454 325.013 147.285 330.91 148.387 336.589C149.699 343.461 153.503 348.294 165.075 351.653L175.939 390.113C175.939 390.113 170.284 395.241 168.552 400.202C166.82 405.163 160.575 442.957 160.575 442.957C160.575 442.957 162.517 446.046 168.618 445.303C168.618 445.303 189.885 397.869 191.381 394.779C193.196 391.65 193.832 387.999 193.178 384.459C192.509 379.485 185.306 325.038 185.306 325.038L154.619 321.551Z" fill="black"/>
<path d="M150.631 292.296L177.658 288.027C178.209 287.911 179.101 287.694 180.282 287.399C180.282 287.399 181.436 303.962 188.377 307.757C188.206 308.552 188.062 309.436 187.931 310.449C187.524 313.628 185.307 324.987 185.307 324.987C185.307 324.987 174.811 329.948 166.191 327.551C157.571 325.154 154.659 321.577 154.659 321.577L158.975 314.705C157.768 311.846 152.336 300.36 150.631 292.296Z" fill="#407BFF"/>
<path opacity="0.7" d="M150.631 292.296L177.658 288.027C178.209 287.911 179.101 287.694 180.282 287.399C180.282 287.399 181.436 303.962 188.377 307.757C188.206 308.552 188.062 309.436 187.931 310.449C187.524 313.628 185.307 324.987 185.307 324.987C185.307 324.987 174.811 329.948 166.191 327.551C157.571 325.154 154.659 321.577 154.659 321.577L158.975 314.705C157.768 311.846 152.336 300.36 150.631 292.296Z" fill="white"/>
<path d="M157.755 311.975C161.344 314.081 165.105 315.894 168.999 317.397C165.464 317.329 162.004 316.394 158.936 314.68L157.755 311.975Z" fill="#407BFF"/>
<path d="M179.521 254.656C179.521 254.656 180.833 262.989 177.737 267.887C177.737 267.887 176.582 264.566 173.709 265.194C170.836 265.823 170.678 269.528 172.699 271.604C173.212 272.187 173.884 272.616 174.636 272.843C175.387 273.07 176.19 273.085 176.95 272.886C176.95 272.886 177.409 278.912 177.658 283.963C177.908 289.014 179.272 300.026 173.46 304.475C167.648 308.923 153.058 310.487 146.223 301.154C142.418 295.962 147.469 286.783 149.818 276.489C151.982 267.028 153.203 253.003 163.476 250.746C173.749 248.49 179.521 254.656 179.521 254.656Z" fill="#37474F"/>
</svg>
